<?xml version="1.0" encoding="utf-8"?>
<!-- Generator: Adobe Illustrator 26.3.1, SVG Export Plug-In . SVG Version: 6.00 Build 0)  -->
<svg version="1.1" id="Слой_1" xmlns="http://www.w3.org/2000/svg" xmlns:xlink="http://www.w3.org/1999/xlink" x="0px" y="0px"
	 viewBox="0 0 565.5 501" style="enable-background:new 0 0 565.5 501;" xml:space="preserve">
<style type="text/css">
	.st0{fill-rule:evenodd;clip-rule:evenodd;fill:#213648;}
	.st1{opacity:0.5956;fill-rule:evenodd;clip-rule:evenodd;fill:url(#SVGID_1_);fill-opacity:0.65;enable-background:new    ;}
	
		.st2{opacity:0.75;fill-rule:evenodd;clip-rule:evenodd;fill:url(#SVGID_00000011003592586352618250000006511446250022380731_);enable-background:new    ;}
	
		.st3{opacity:0.75;fill-rule:evenodd;clip-rule:evenodd;fill:url(#SVGID_00000076589301039709735140000005727261214384419249_);enable-background:new    ;}
	.st4{fill-rule:evenodd;clip-rule:evenodd;fill:#2E423C;}
	.st5{fill-rule:evenodd;clip-rule:evenodd;fill:#EDF3F8;}
	.st6{fill-rule:evenodd;clip-rule:evenodd;fill:#FFFFFF;filter:url(#Adobe_OpacityMaskFilter);}
	.st7{mask:url(#mask0_3805_2_00000082345282516978046550000004842235010986731710_);}
	.st8{fill:#FBFCFE;}
	.st9{clip-path:url(#SVGID_00000060016167144747829220000005702323178938987453_);}
	.st10{opacity:0.7;fill:#36536B;enable-background:new    ;}
	.st11{fill:#36536B;}
	.st12{clip-path:url(#SVGID_00000016044945775291900600000003362053974145127837_);}
	.st13{clip-path:url(#SVGID_00000171721344596819030800000017234432136485279125_);}
	.st14{clip-path:url(#SVGID_00000095322300523332233780000000121559813264979592_);}
	.st15{clip-path:url(#SVGID_00000075881967356923370790000004820048451427370897_);}
	.st16{clip-path:url(#SVGID_00000011027495060139394560000017836582356522671790_);}
	.st17{clip-path:url(#SVGID_00000062912764648876748890000015187410753673168317_);}
	.st18{clip-path:url(#SVGID_00000048486923268357320450000005450305030280421810_);}
	.st19{fill:#BA4270;}
	.st20{fill-rule:evenodd;clip-rule:evenodd;fill:#FFFFFF;}
	.st21{fill:#FFFFFF;}
	.st22{opacity:0.5;fill:#FFFFFF;enable-background:new    ;}
	.st23{opacity:0.25;fill:#FFFFFF;enable-background:new    ;}
	
		.st24{opacity:0.5956;fill-rule:evenodd;clip-rule:evenodd;fill:url(#SVGID_00000054983298938330487610000005880266480490635909_);fill-opacity:0.65;enable-background:new    ;}
	
		.st25{opacity:0.75;fill-rule:evenodd;clip-rule:evenodd;fill:url(#SVGID_00000084512303825474139160000004515179391525467527_);enable-background:new    ;}
	
		.st26{opacity:0.75;fill-rule:evenodd;clip-rule:evenodd;fill:url(#SVGID_00000121268977452686396120000000322267603719969432_);enable-background:new    ;}
	.st27{fill-rule:evenodd;clip-rule:evenodd;fill:#36536B;}
	
		.st28{fill-rule:evenodd;clip-rule:evenodd;fill:#FFFFFF;filter:url(#Adobe_OpacityMaskFilter_00000140014918250096828050000016833178346894776214_);}
	.st29{mask:url(#mask1_3805_2_00000056398443098071236230000002736045859507759023_);}
	.st30{clip-path:url(#SVGID_00000061435699129212004150000009732117806594845105_);}
	.st31{opacity:0.25;fill:#BA4270;enable-background:new    ;}
	.st32{fill:none;stroke:#BA4270;stroke-width:3;}
	.st33{clip-path:url(#SVGID_00000143593199891643131000000014534928298646491530_);}
</style>
<g>
	<path class="st0" d="M35.8,0.6H227c18.3,0,33.2,14.2,33.2,31.8v435.3c0,17.6-14.9,31.8-33.2,31.8H35.8c-18.3,0-33.2-14.2-33.2-31.8
		V32.4C2.6,14.8,17.4,0.6,35.8,0.6z"/>
</g>
<linearGradient id="SVGID_1_" gradientUnits="userSpaceOnUse" x1="131.3353" y1="502" x2="131.3353" y2="489.6761" gradientTransform="matrix(1 0 0 -1 0 502)">
	<stop  offset="0" style="stop-color:#454545"/>
	<stop  offset="0.2263" style="stop-color:#999999"/>
	<stop  offset="1" style="stop-color:#FFFFFF"/>
</linearGradient>
<path class="st1" d="M227.7,0H34.9c-9,0.5-17.3,4.7-24.9,12.3c4.9-4.3,13.6-10,25.1-10c0,0,184.7,0,192.4,0c11.5,0,20.3,5.7,25.1,10
	C245.1,4.7,236.8,0.5,227.7,0z"/>
<linearGradient id="SVGID_00000076577479145832585620000010519933217001080208_" gradientUnits="userSpaceOnUse" x1="260.103" y1="253.1738" x2="250.642" y2="253.1738" gradientTransform="matrix(1 0 0 -1 0 502)">
	<stop  offset="0" style="stop-color:#FFFFFF;stop-opacity:1.000000e-02"/>
	<stop  offset="0.2222" style="stop-color:#BABABA"/>
	<stop  offset="0.5468" style="stop-color:#FFFFFF;stop-opacity:1.000000e-02"/>
	<stop  offset="1" style="stop-color:#FFFFFF;stop-opacity:1.000000e-02"/>
</linearGradient>
<path style="opacity:0.75;fill-rule:evenodd;clip-rule:evenodd;fill:url(#SVGID_00000076577479145832585620000010519933217001080208_);enable-background:new    ;" d="
	M255,462.7V35c0-11.5-4.2-15.7-6.7-18.4c-2.5-2.7-2.6-4.1,1-2.1c3.6,2.1,10.8,8,10.8,20.5v427.7c0,12.5-7.2,18.4-10.8,20.5
	c-3.6,2.1-3.5,0.7-1-2.1C250.8,478.4,255,474.1,255,462.7z"/>
<linearGradient id="SVGID_00000021084386678036124410000001531499516891790982_" gradientUnits="userSpaceOnUse" x1="2.568" y1="253.1738" x2="12.044" y2="253.1738" gradientTransform="matrix(1 0 0 -1 0 502)">
	<stop  offset="0" style="stop-color:#FFFFFF;stop-opacity:1.000000e-02"/>
	<stop  offset="0.2222" style="stop-color:#BABABA"/>
	<stop  offset="0.5468" style="stop-color:#FFFFFF;stop-opacity:1.000000e-02"/>
	<stop  offset="1" style="stop-color:#FFFFFF;stop-opacity:1.000000e-02"/>
</linearGradient>
<path style="opacity:0.75;fill-rule:evenodd;clip-rule:evenodd;fill:url(#SVGID_00000021084386678036124410000001531499516891790982_);enable-background:new    ;" d="
	M7.7,462.7V35c0-11.5,4.2-15.7,6.7-18.4c2.5-2.7,2.6-4.1-1-2.1C9.8,16.5,2.6,22.5,2.6,35v427.7c0,12.5,7.2,18.4,10.8,20.5
	c3.6,2.1,3.5,0.7,1-2.1C11.9,478.4,7.7,474.1,7.7,462.7z"/>
<path class="st4" d="M0,103.6c0-1.1,0.9-2,2-2h1c1.1,0,2,0.9,2,2v60.3c0,1.1-0.9,2-2,2H2c-1.1,0-2-0.9-2-2V103.6z"/>
<path class="st4" d="M257.5,156c0-1.1,0.9-2,2-2h1c1.1,0,2,0.9,2,2V199c0,1.1-0.9,2-2,2h-1c-1.1,0-2-0.9-2-2V156z"/>
<path class="st5" d="M108.7,12.4H34.3c-11.1,0-19.2,7.6-19.2,17.4v422.4c0,12.9,12.5,24.3,26.6,24.3H221c13.6,0,26.6-11.5,26.6-24.3
	V31c0-11.8-8.8-18.5-19.2-18.6h-75.6c-0.3,0-5.5,2.2-7.7,7.6c-2.2,5.4-6.6,9.7-11.4,9.7h-5.6c-2.3,0-8.3-2.2-11.4-9.7
	C113.7,12.6,109,12.5,108.7,12.4z"/>
<defs>
	<filter id="Adobe_OpacityMaskFilter" filterUnits="userSpaceOnUse" x="15.1" y="12.4" width="233" height="488.6">
		<feColorMatrix  type="matrix" values="1 0 0 0 0  0 1 0 0 0  0 0 1 0 0  0 0 0 1 0"/>
	</filter>
</defs>
<mask maskUnits="userSpaceOnUse" x="15.1" y="12.4" width="233" height="488.6" id="mask0_3805_2_00000082345282516978046550000004842235010986731710_">
	<path class="st6" d="M108.7,12.4H34.3c-11.1,0-19.2,7.6-19.2,17.4v422.4c0,12.9,12.5,24.3,26.6,24.3H221
		c13.6,0,26.6-11.5,26.6-24.3V31c0-11.8-8.8-18.5-19.2-18.6h-75.6c-0.3,0-5.5,2.2-7.7,7.6c-2.2,5.4-6.6,9.7-11.4,9.7h-5.6
		c-2.3,0-8.3-2.2-11.4-9.7C113.7,12.6,109,12.5,108.7,12.4z"/>
</mask>
<g class="st7">
	<g>
		<path class="st8" d="M35,173h194c2.8,0,5,2.2,5,5v30c0,2.8-2.2,5-5,5H35c-2.8,0-5-2.2-5-5v-30C30,175.2,32.2,173,35,173z"/>
	</g>
	<g>
		<defs>
			<rect id="SVGID_00000136384414761270085500000011286067818957611951_" x="46" y="184" width="172" height="18"/>
		</defs>
		<clipPath id="SVGID_00000147899173334504205480000004166156533696972713_">
			<use xlink:href="#SVGID_00000136384414761270085500000011286067818957611951_"  style="overflow:visible;"/>
		</clipPath>
		<g style="clip-path:url(#SVGID_00000147899173334504205480000004166156533696972713_);">
			<path class="st10" d="M47,189.8h0.9v7.2H47V189.8z M52.2,192.5H51v3.2c0,0.2,0,0.3,0.1,0.4c0,0.1,0.1,0.1,0.2,0.2
				c0.1,0,0.2,0,0.4,0h0.6v0.6c-0.1,0-0.2,0-0.3,0.1c-0.1,0-0.3,0-0.5,0c-0.4,0-0.6,0-0.8-0.1c-0.2-0.1-0.3-0.2-0.4-0.4
				c-0.1-0.2-0.1-0.4-0.1-0.7v-3.2h-0.8v-0.7h0.9l0.2-1.5H51v1.5h1.2V192.5z M53.9,194.6c0,0.3,0.1,0.6,0.2,0.9
				c0.1,0.3,0.3,0.5,0.5,0.6c0.2,0.2,0.5,0.2,0.8,0.2c0.3,0,0.6-0.1,0.8-0.2c0.2-0.2,0.4-0.4,0.5-0.7h0.9c-0.1,0.3-0.2,0.6-0.4,0.9
				s-0.5,0.4-0.8,0.5c-0.3,0.1-0.6,0.2-1,0.2c-0.5,0-0.9-0.1-1.3-0.3c-0.4-0.2-0.7-0.5-0.9-0.9c-0.2-0.4-0.3-0.9-0.3-1.4
				c0-0.5,0.1-1,0.3-1.4c0.2-0.4,0.5-0.7,0.8-1c0.4-0.2,0.8-0.3,1.3-0.3c0.5,0,0.9,0.1,1.2,0.3c0.3,0.2,0.6,0.5,0.8,0.9
				c0.2,0.4,0.3,0.8,0.3,1.4v0.3H53.9z M53.9,194h2.8c0-0.3,0-0.6-0.1-0.8c-0.1-0.2-0.3-0.4-0.5-0.6c-0.2-0.1-0.5-0.2-0.8-0.2
				c-0.3,0-0.6,0.1-0.8,0.2c-0.2,0.2-0.4,0.4-0.5,0.6C54,193.5,53.9,193.7,53.9,194z M58.8,197v-5.2h0.9v0.8
				c0.1-0.2,0.3-0.4,0.6-0.6s0.6-0.3,1-0.3c0.2,0,0.4,0,0.6,0.1c0.2,0.1,0.4,0.2,0.5,0.3s0.3,0.3,0.4,0.5c0.2-0.3,0.4-0.5,0.7-0.6
				c0.3-0.2,0.6-0.2,0.9-0.2c0.2,0,0.4,0,0.6,0.1c0.2,0.1,0.4,0.1,0.5,0.3c0.2,0.1,0.3,0.3,0.4,0.6c0.1,0.2,0.2,0.6,0.2,0.9v3.4
				h-0.9v-3.3c0-0.3,0-0.6-0.2-0.7c-0.1-0.2-0.2-0.3-0.4-0.4c-0.2-0.1-0.3-0.1-0.5-0.1c-0.2,0-0.3,0-0.5,0.1s-0.3,0.2-0.5,0.3
				c-0.1,0.2-0.2,0.4-0.2,0.6v3.5H62v-3.6c0-0.2-0.1-0.4-0.2-0.5c-0.1-0.1-0.2-0.2-0.4-0.3c-0.2-0.1-0.3-0.1-0.5-0.1
				c-0.2,0-0.4,0-0.5,0.1c-0.2,0.1-0.3,0.2-0.4,0.3c-0.1,0.1-0.2,0.3-0.2,0.6v3.5H58.8z M71.7,189.8l-1.1,7.2l-0.6-0.1l1.1-7.2
				L71.7,189.8z M73.8,189.8l-1.1,7.2l-0.6-0.1l1.1-7.2L73.8,189.8z M74.2,194.1v0.6h-4.9v-0.6H74.2z M74.5,192v0.6h-4.9V192H74.5z
				 M77.9,189.7c0.8,0,1.4,0.3,1.9,0.9c0.5,0.6,0.7,1.6,0.7,2.8c0,1.2-0.2,2.1-0.7,2.8c-0.5,0.6-1.1,0.9-1.9,0.9
				c-0.8,0-1.4-0.3-1.9-0.9c-0.5-0.6-0.7-1.5-0.7-2.8c0-0.8,0.1-1.5,0.3-2.1c0.2-0.6,0.5-1,0.9-1.3
				C76.9,189.8,77.4,189.7,77.9,189.7z M77.9,196.3c0.5,0,0.9-0.2,1.2-0.7c0.3-0.5,0.4-1.2,0.4-2.2c0-1-0.1-1.8-0.4-2.3
				c-0.3-0.5-0.7-0.7-1.2-0.7c-0.5,0-0.9,0.2-1.2,0.7c-0.3,0.5-0.4,1.2-0.4,2.3c0,1,0.1,1.8,0.4,2.2C77,196.1,77.4,196.3,77.9,196.3
				z M83.9,189.7c0.8,0,1.4,0.3,1.9,0.9c0.5,0.6,0.7,1.6,0.7,2.8c0,1.2-0.2,2.1-0.7,2.8c-0.5,0.6-1.1,0.9-1.9,0.9
				c-0.8,0-1.4-0.3-1.9-0.9c-0.5-0.6-0.7-1.5-0.7-2.8c0-0.8,0.1-1.5,0.3-2.1c0.2-0.6,0.5-1,0.9-1.3
				C82.9,189.8,83.3,189.7,83.9,189.7z M83.9,196.3c0.5,0,0.9-0.2,1.2-0.7c0.3-0.5,0.4-1.2,0.4-2.2c0-1-0.1-1.8-0.4-2.3
				c-0.3-0.5-0.7-0.7-1.2-0.7c-0.5,0-0.9,0.2-1.2,0.7c-0.3,0.5-0.4,1.2-0.4,2.3c0,1,0.1,1.8,0.4,2.2C83,196.1,83.4,196.3,83.9,196.3
				z M88.7,197v-5.8h-1.4v-0.6c0.4,0,0.8,0,1-0.1c0.2-0.1,0.4-0.2,0.5-0.3c0.1-0.1,0.2-0.3,0.2-0.5h0.7v7.2H88.7z"/>
			<path class="st11" d="M197.1,197.1c-1.1,0-2-0.2-2.7-0.7c-0.7-0.5-1.1-1.2-1.2-2.1l2,0c0.1,0.4,0.3,0.8,0.7,1
				c0.3,0.2,0.8,0.3,1.3,0.3c0.3,0,0.6,0,0.8-0.1c0.2-0.1,0.4-0.2,0.6-0.4c0.1-0.2,0.2-0.4,0.2-0.6c0-0.3-0.1-0.6-0.3-0.8
				c-0.2-0.2-0.6-0.3-1-0.4l-1.5-0.3c-0.7-0.1-1.3-0.4-1.7-0.9c-0.4-0.4-0.6-1-0.7-1.7c0-0.6,0.2-1.1,0.5-1.5c0.3-0.4,0.8-0.8,1.3-1
				c0.6-0.2,1.2-0.4,1.9-0.4c0.7,0,1.3,0.1,1.8,0.4c0.5,0.3,0.9,0.6,1.2,1c0.3,0.4,0.4,0.9,0.4,1.4l-1.9,0c-0.1-0.4-0.2-0.7-0.4-1
				c-0.2-0.2-0.6-0.4-1.1-0.4c-0.3,0-0.5,0-0.7,0.1c-0.2,0.1-0.4,0.1-0.5,0.2c-0.1,0.1-0.3,0.2-0.3,0.4c-0.1,0.1-0.1,0.3-0.1,0.5
				c0,0.3,0.1,0.5,0.3,0.7c0.2,0.2,0.5,0.3,1,0.4l1.5,0.4c0.9,0.2,1.5,0.6,1.8,1c0.4,0.5,0.6,1.1,0.6,1.8c0,0.5-0.2,1-0.4,1.4
				c-0.3,0.4-0.7,0.7-1.3,0.9C198.5,197,197.9,197.1,197.1,197.1z M196.3,186.3h1.6v1.7h-1.6V186.3z M196.3,196.6h1.6v1.7h-1.6
				V196.6z M202,197v-0.9v-0.5c0-0.5,0.1-0.9,0.3-1.2c0.2-0.4,0.4-0.7,0.7-0.9c0.3-0.3,0.6-0.5,1-0.7c0.4-0.2,0.7-0.4,1.1-0.6
				c0.4-0.2,0.7-0.3,1-0.5c0.3-0.2,0.5-0.4,0.7-0.6c0.2-0.2,0.3-0.5,0.3-0.8c0-0.4-0.1-0.7-0.4-0.9c-0.3-0.2-0.6-0.4-1.1-0.4
				c-0.5,0-0.9,0.1-1.2,0.4c-0.3,0.3-0.5,0.7-0.6,1.2h-1.8c0-0.6,0.1-1.1,0.4-1.6c0.3-0.5,0.7-0.9,1.2-1.2c0.5-0.3,1.2-0.4,2-0.4
				c0.7,0,1.3,0.1,1.8,0.4c0.5,0.2,0.9,0.6,1.2,1c0.3,0.4,0.4,0.9,0.4,1.5c0,0.5-0.1,0.9-0.3,1.2c-0.2,0.3-0.4,0.6-0.7,0.9
				c-0.3,0.2-0.6,0.5-0.9,0.6c-0.3,0.2-0.7,0.4-1,0.5c-0.3,0.2-0.6,0.3-0.9,0.5c-0.3,0.2-0.5,0.3-0.7,0.5c-0.2,0.2-0.3,0.4-0.3,0.7
				v0.1h4.8v1.6H202z M213.5,197.1c-0.6,0-1.1-0.1-1.6-0.3c-0.5-0.2-0.9-0.5-1.2-0.9c-0.3-0.4-0.5-0.9-0.5-1.4h1.8
				c0.1,0.4,0.3,0.7,0.5,0.9c0.3,0.2,0.6,0.3,1,0.3c0.5,0,0.8-0.1,1.2-0.3c0.3-0.2,0.6-0.6,0.8-1c0.2-0.5,0.2-1.1,0.2-1.8
				c-0.1,0.2-0.3,0.4-0.5,0.6c-0.2,0.2-0.5,0.3-0.7,0.4c-0.3,0.1-0.6,0.1-1,0.1c-0.6,0-1.2-0.1-1.7-0.4c-0.5-0.2-0.9-0.6-1.2-1
				c-0.3-0.4-0.4-1-0.4-1.6c0-0.6,0.1-1.2,0.4-1.6c0.3-0.5,0.7-0.9,1.2-1.1c0.5-0.3,1.1-0.4,1.9-0.4c0.8,0,1.5,0.2,2.1,0.6
				c0.6,0.4,1,0.9,1.3,1.6c0.3,0.7,0.5,1.5,0.5,2.4c0,1.1-0.2,2.1-0.5,2.8c-0.3,0.7-0.8,1.3-1.4,1.7
				C215,197,214.3,197.1,213.5,197.1z M213.6,192.1c0.3,0,0.5-0.1,0.8-0.2c0.3-0.1,0.5-0.3,0.6-0.5c0.2-0.2,0.2-0.4,0.2-0.6
				c0-0.4-0.1-0.8-0.2-1.1c-0.1-0.3-0.3-0.5-0.6-0.7c-0.2-0.2-0.5-0.2-0.9-0.2c-0.3,0-0.6,0.1-0.8,0.2c-0.2,0.1-0.4,0.3-0.6,0.6
				c-0.1,0.3-0.2,0.5-0.2,0.9c0,0.5,0.1,0.9,0.4,1.1C212.8,192,213.2,192.1,213.6,192.1z"/>
		</g>
	</g>
	<g>
		<path class="st8" d="M35,221h194c2.8,0,5,2.2,5,5v30c0,2.8-2.2,5-5,5H35c-2.8,0-5-2.2-5-5v-30C30,223.2,32.2,221,35,221z"/>
	</g>
	<g>
		<defs>
			<rect id="SVGID_00000038382812624385933260000005646843583527837571_" x="46" y="232" width="172" height="18"/>
		</defs>
		<clipPath id="SVGID_00000168815848475874876890000004692666243953847472_">
			<use xlink:href="#SVGID_00000038382812624385933260000005646843583527837571_"  style="overflow:visible;"/>
		</clipPath>
		<g style="clip-path:url(#SVGID_00000168815848475874876890000004692666243953847472_);">
			<path class="st10" d="M47,237.8h0.9v7.2H47V237.8z M52.2,240.5H51v3.2c0,0.2,0,0.3,0.1,0.4c0,0.1,0.1,0.1,0.2,0.2
				c0.1,0,0.2,0,0.4,0h0.6v0.6c-0.1,0-0.2,0-0.3,0.1c-0.1,0-0.3,0-0.5,0c-0.4,0-0.6,0-0.8-0.1c-0.2-0.1-0.3-0.2-0.4-0.4
				c-0.1-0.2-0.1-0.4-0.1-0.7v-3.2h-0.8v-0.7h0.9l0.2-1.5H51v1.5h1.2V240.5z M53.9,242.6c0,0.3,0.1,0.6,0.2,0.9
				c0.1,0.3,0.3,0.5,0.5,0.6c0.2,0.2,0.5,0.2,0.8,0.2c0.3,0,0.6-0.1,0.8-0.2c0.2-0.2,0.4-0.4,0.5-0.7h0.9c-0.1,0.4-0.2,0.6-0.4,0.9
				s-0.5,0.4-0.8,0.5c-0.3,0.1-0.6,0.2-1,0.2c-0.5,0-0.9-0.1-1.3-0.3c-0.4-0.2-0.7-0.5-0.9-0.9S53,243,53,242.5c0-0.5,0.1-1,0.3-1.4
				c0.2-0.4,0.5-0.7,0.8-1c0.4-0.2,0.8-0.3,1.3-0.3c0.5,0,0.9,0.1,1.2,0.3c0.3,0.2,0.6,0.5,0.8,0.9c0.2,0.4,0.3,0.8,0.3,1.4v0.3
				H53.9z M53.9,242h2.8c0-0.3,0-0.6-0.1-0.8c-0.1-0.2-0.3-0.4-0.5-0.6c-0.2-0.1-0.5-0.2-0.8-0.2c-0.3,0-0.6,0.1-0.8,0.2
				c-0.2,0.2-0.4,0.4-0.5,0.6C54,241.5,53.9,241.7,53.9,242z M58.8,245v-5.2h0.9v0.8c0.1-0.2,0.3-0.4,0.6-0.6c0.3-0.2,0.6-0.3,1-0.3
				c0.2,0,0.4,0,0.6,0.1c0.2,0.1,0.4,0.2,0.5,0.3c0.2,0.1,0.3,0.3,0.4,0.5c0.2-0.3,0.4-0.5,0.7-0.6c0.3-0.2,0.6-0.2,0.9-0.2
				c0.2,0,0.4,0,0.6,0.1c0.2,0.1,0.4,0.1,0.5,0.3c0.2,0.1,0.3,0.3,0.4,0.6c0.1,0.2,0.2,0.6,0.2,0.9v3.4h-0.9v-3.3
				c0-0.3,0-0.6-0.2-0.7c-0.1-0.2-0.2-0.3-0.4-0.4c-0.2-0.1-0.3-0.1-0.5-0.1c-0.2,0-0.3,0-0.5,0.1c-0.2,0.1-0.3,0.2-0.5,0.3
				s-0.2,0.4-0.2,0.6v3.5H62v-3.6c0-0.2-0.1-0.4-0.2-0.5c-0.1-0.1-0.2-0.2-0.4-0.3c-0.2-0.1-0.3-0.1-0.5-0.1c-0.2,0-0.4,0-0.5,0.1
				c-0.2,0.1-0.3,0.2-0.4,0.3c-0.1,0.2-0.2,0.3-0.2,0.6v3.5H58.8z M71.7,237.8l-1.1,7.2l-0.6-0.1l1.1-7.2L71.7,237.8z M73.8,237.8
				l-1.1,7.2l-0.6-0.1l1.1-7.2L73.8,237.8z M74.2,242.1v0.6h-4.9v-0.6H74.2z M74.5,240v0.6h-4.9V240H74.5z M77.9,237.7
				c0.8,0,1.4,0.3,1.9,0.9c0.5,0.6,0.7,1.6,0.7,2.8c0,1.2-0.2,2.1-0.7,2.8c-0.5,0.6-1.1,0.9-1.9,0.9c-0.8,0-1.4-0.3-1.9-0.9
				c-0.5-0.6-0.7-1.5-0.7-2.8c0-0.8,0.1-1.5,0.3-2.1c0.2-0.6,0.5-1,0.9-1.3C76.9,237.8,77.4,237.7,77.9,237.7z M77.9,244.3
				c0.5,0,0.9-0.2,1.2-0.7c0.3-0.5,0.4-1.2,0.4-2.2c0-1-0.1-1.8-0.4-2.3c-0.3-0.5-0.7-0.7-1.2-0.7c-0.5,0-0.9,0.2-1.2,0.7
				c-0.3,0.5-0.4,1.2-0.4,2.3c0,1,0.1,1.8,0.4,2.2C77,244.1,77.4,244.3,77.9,244.3z M83.9,237.7c0.8,0,1.4,0.3,1.9,0.9
				c0.5,0.6,0.7,1.6,0.7,2.8c0,1.2-0.2,2.1-0.7,2.8c-0.5,0.6-1.1,0.9-1.9,0.9c-0.8,0-1.4-0.3-1.9-0.9c-0.5-0.6-0.7-1.5-0.7-2.8
				c0-0.8,0.1-1.5,0.3-2.1c0.2-0.6,0.5-1,0.9-1.3C82.9,237.8,83.3,237.7,83.9,237.7z M83.9,244.3c0.5,0,0.9-0.2,1.2-0.7
				c0.3-0.5,0.4-1.2,0.4-2.2c0-1-0.1-1.8-0.4-2.3c-0.3-0.5-0.7-0.7-1.2-0.7c-0.5,0-0.9,0.2-1.2,0.7c-0.3,0.5-0.4,1.2-0.4,2.3
				c0,1,0.1,1.8,0.4,2.2C83,244.1,83.4,244.3,83.9,244.3z M87.5,245v-0.6v-0.3c0-0.4,0.1-0.7,0.2-1c0.1-0.3,0.3-0.5,0.6-0.7
				c0.2-0.2,0.5-0.4,0.8-0.5c0.3-0.2,0.5-0.3,0.8-0.5c0.3-0.1,0.5-0.3,0.8-0.5c0.2-0.2,0.4-0.3,0.5-0.6c0.1-0.2,0.2-0.4,0.2-0.7
				c0-0.4-0.1-0.7-0.4-0.9c-0.3-0.2-0.6-0.3-1-0.3c-0.5,0-0.9,0.1-1.1,0.4c-0.3,0.3-0.4,0.6-0.5,1.1h-0.9c0-0.4,0.1-0.8,0.3-1.1
				c0.2-0.3,0.5-0.6,0.9-0.8s0.8-0.3,1.4-0.3c0.5,0,0.9,0.1,1.3,0.3c0.4,0.2,0.6,0.4,0.8,0.7c0.2,0.3,0.3,0.7,0.3,1.1
				c0,0.4-0.1,0.7-0.2,1c-0.1,0.3-0.3,0.5-0.5,0.7c-0.2,0.2-0.5,0.4-0.7,0.5c-0.3,0.2-0.5,0.3-0.8,0.4c-0.3,0.1-0.5,0.3-0.7,0.4
				c-0.2,0.2-0.4,0.3-0.5,0.5c-0.1,0.2-0.2,0.4-0.2,0.7v0.1h3.8v0.8H87.5z"/>
			<path class="st11" d="M191.3,245.1c-1.1,0-2-0.2-2.7-0.7c-0.7-0.5-1.1-1.2-1.2-2.1l2,0c0.1,0.4,0.3,0.8,0.7,1
				c0.3,0.2,0.8,0.3,1.3,0.3c0.3,0,0.6,0,0.8-0.1c0.2-0.1,0.4-0.2,0.6-0.4c0.1-0.2,0.2-0.4,0.2-0.6c0-0.3-0.1-0.6-0.3-0.8
				c-0.2-0.2-0.6-0.3-1-0.4l-1.5-0.3c-0.7-0.1-1.3-0.4-1.7-0.9c-0.4-0.4-0.6-1-0.7-1.7c0-0.6,0.2-1.1,0.5-1.5c0.3-0.4,0.8-0.8,1.3-1
				c0.6-0.2,1.2-0.4,1.9-0.4c0.7,0,1.3,0.1,1.8,0.4c0.5,0.3,0.9,0.6,1.2,1c0.3,0.4,0.4,0.9,0.4,1.4l-1.9,0c-0.1-0.4-0.2-0.7-0.4-1
				c-0.2-0.2-0.6-0.4-1.1-0.4c-0.3,0-0.5,0-0.7,0.1c-0.2,0.1-0.4,0.1-0.5,0.2c-0.1,0.1-0.3,0.2-0.3,0.4c-0.1,0.1-0.1,0.3-0.1,0.5
				c0,0.3,0.1,0.5,0.3,0.6c0.2,0.2,0.5,0.3,1,0.4l1.5,0.4c0.9,0.2,1.5,0.6,1.8,1c0.4,0.5,0.6,1.1,0.6,1.8c0,0.5-0.2,1-0.4,1.4
				c-0.3,0.4-0.7,0.7-1.3,0.9C192.7,245,192.1,245.1,191.3,245.1z M190.5,234.3h1.6v1.7h-1.6V234.3z M190.5,244.6h1.6v1.7h-1.6
				V244.6z M197.7,245v-7H196v-1.1c0.5,0,1,0,1.3-0.1c0.3-0.1,0.6-0.3,0.7-0.4c0.2-0.2,0.3-0.4,0.3-0.7h1.3v9.4H197.7z M205.1,235.5
				c1.1,0,2,0.4,2.6,1.3c0.6,0.8,1,2,1,3.6c0,1.6-0.3,2.7-1,3.6c-0.6,0.8-1.5,1.2-2.7,1.2c-1.1,0-2-0.4-2.7-1.2c-0.6-0.8-1-2-1-3.6
				c0-1,0.1-1.9,0.4-2.6c0.3-0.7,0.7-1.3,1.3-1.6C203.8,235.7,204.4,235.5,205.1,235.5z M205.1,243.6c0.6,0,1-0.2,1.2-0.7
				c0.3-0.5,0.4-1.3,0.4-2.5c0-1.2-0.1-2.1-0.4-2.6c-0.3-0.5-0.7-0.8-1.2-0.8c-0.6,0-1,0.3-1.2,0.8c-0.3,0.5-0.4,1.4-0.4,2.6
				c0,1.2,0.1,2,0.4,2.5C204.2,243.3,204.6,243.6,205.1,243.6z M210.8,235.6h6l-0.1,1.6h-4.5l-0.2,2.3c0.3-0.2,0.7-0.3,1-0.4
				c0.3-0.1,0.7-0.1,1-0.1c0.6,0,1.2,0.1,1.7,0.4c0.5,0.2,0.9,0.6,1.2,1c0.3,0.5,0.4,1,0.4,1.7c0,0.7-0.1,1.2-0.4,1.7
				c-0.3,0.5-0.7,0.9-1.3,1.1c-0.5,0.3-1.2,0.4-1.9,0.4c-0.6,0-1.2-0.1-1.7-0.3c-0.5-0.2-1-0.5-1.4-0.8c-0.4-0.3-0.7-0.7-0.9-1.1
				l1.5-0.9c0.2,0.3,0.4,0.6,0.6,0.8c0.2,0.2,0.5,0.4,0.7,0.6c0.3,0.1,0.6,0.2,1,0.2c0.6,0,1-0.1,1.4-0.4c0.3-0.3,0.5-0.7,0.5-1.2
				c0-0.3-0.1-0.6-0.2-0.8c-0.2-0.2-0.4-0.4-0.6-0.6c-0.3-0.1-0.6-0.2-0.9-0.2c-0.2,0-0.4,0-0.5,0.1c-0.2,0-0.3,0.1-0.5,0.2
				c-0.2,0.1-0.4,0.2-0.6,0.4c-0.1,0-0.1,0-0.1,0c0,0-0.1,0-0.1,0l-1.4-0.6L210.8,235.6z"/>
		</g>
	</g>
	<g>
		<path class="st8" d="M35,269h194c2.8,0,5,2.2,5,5v30c0,2.8-2.2,5-5,5H35c-2.8,0-5-2.2-5-5v-30C30,271.2,32.2,269,35,269z"/>
	</g>
	<g>
		<defs>
			<rect id="SVGID_00000035491110726460125420000009763429439295374267_" x="46" y="280" width="172" height="18"/>
		</defs>
		<clipPath id="SVGID_00000016052675058706163080000016158432531766445190_">
			<use xlink:href="#SVGID_00000035491110726460125420000009763429439295374267_"  style="overflow:visible;"/>
		</clipPath>
		<g style="clip-path:url(#SVGID_00000016052675058706163080000016158432531766445190_);">
			<path class="st10" d="M47,285.8h0.9v7.2H47V285.8z M52.2,288.5H51v3.2c0,0.2,0,0.3,0.1,0.4c0,0.1,0.1,0.1,0.2,0.2
				c0.1,0,0.2,0,0.4,0h0.6v0.6c-0.1,0-0.2,0-0.3,0.1c-0.1,0-0.3,0-0.5,0c-0.4,0-0.6,0-0.8-0.1c-0.2-0.1-0.3-0.2-0.4-0.4
				c-0.1-0.2-0.1-0.4-0.1-0.7v-3.2h-0.8v-0.7h0.9l0.2-1.5H51v1.5h1.2V288.5z M53.9,290.6c0,0.3,0.1,0.6,0.2,0.9
				c0.1,0.3,0.3,0.5,0.5,0.6c0.2,0.2,0.5,0.2,0.8,0.2c0.3,0,0.6-0.1,0.8-0.2c0.2-0.2,0.4-0.4,0.5-0.7h0.9c-0.1,0.4-0.2,0.6-0.4,0.9
				s-0.5,0.4-0.8,0.5c-0.3,0.1-0.6,0.2-1,0.2c-0.5,0-0.9-0.1-1.3-0.3c-0.4-0.2-0.7-0.5-0.9-0.9S53,291,53,290.5c0-0.5,0.1-1,0.3-1.4
				c0.2-0.4,0.5-0.7,0.8-1c0.4-0.2,0.8-0.3,1.3-0.3c0.5,0,0.9,0.1,1.2,0.3c0.3,0.2,0.6,0.5,0.8,0.9c0.2,0.4,0.3,0.8,0.3,1.4v0.3
				H53.9z M53.9,290h2.8c0-0.3,0-0.6-0.1-0.8c-0.1-0.2-0.3-0.4-0.5-0.6c-0.2-0.1-0.5-0.2-0.8-0.2c-0.3,0-0.6,0.1-0.8,0.2
				c-0.2,0.2-0.4,0.4-0.5,0.6C54,289.5,53.9,289.7,53.9,290z M58.8,293v-5.2h0.9v0.8c0.1-0.2,0.3-0.4,0.6-0.6c0.3-0.2,0.6-0.3,1-0.3
				c0.2,0,0.4,0,0.6,0.1c0.2,0.1,0.4,0.2,0.5,0.3c0.2,0.1,0.3,0.3,0.4,0.5c0.2-0.3,0.4-0.5,0.7-0.6c0.3-0.2,0.6-0.2,0.9-0.2
				c0.2,0,0.4,0,0.6,0.1c0.2,0.1,0.4,0.1,0.5,0.3c0.2,0.1,0.3,0.3,0.4,0.6c0.1,0.2,0.2,0.6,0.2,0.9v3.4h-0.9v-3.3
				c0-0.3,0-0.6-0.2-0.7c-0.1-0.2-0.2-0.3-0.4-0.4c-0.2-0.1-0.3-0.1-0.5-0.1c-0.2,0-0.3,0-0.5,0.1c-0.2,0.1-0.3,0.2-0.5,0.3
				s-0.2,0.4-0.2,0.6v3.5H62v-3.6c0-0.2-0.1-0.4-0.2-0.5c-0.1-0.1-0.2-0.2-0.4-0.3c-0.2-0.1-0.3-0.1-0.5-0.1c-0.2,0-0.4,0-0.5,0.1
				c-0.2,0.1-0.3,0.2-0.4,0.3c-0.1,0.2-0.2,0.3-0.2,0.6v3.5H58.8z M71.7,285.8l-1.1,7.2l-0.6-0.1l1.1-7.2L71.7,285.8z M73.8,285.8
				l-1.1,7.2l-0.6-0.1l1.1-7.2L73.8,285.8z M74.2,290.1v0.6h-4.9v-0.6H74.2z M74.5,288v0.6h-4.9V288H74.5z M77.9,285.7
				c0.8,0,1.4,0.3,1.9,0.9c0.5,0.6,0.7,1.6,0.7,2.8c0,1.2-0.2,2.1-0.7,2.8c-0.5,0.6-1.1,0.9-1.9,0.9c-0.8,0-1.4-0.3-1.9-0.9
				c-0.5-0.6-0.7-1.5-0.7-2.8c0-0.8,0.1-1.5,0.3-2.1c0.2-0.6,0.5-1,0.9-1.3C76.9,285.8,77.4,285.7,77.9,285.7z M77.9,292.3
				c0.5,0,0.9-0.2,1.2-0.7c0.3-0.5,0.4-1.2,0.4-2.2c0-1-0.1-1.8-0.4-2.3c-0.3-0.5-0.7-0.7-1.2-0.7c-0.5,0-0.9,0.2-1.2,0.7
				c-0.3,0.5-0.4,1.2-0.4,2.3c0,1,0.1,1.8,0.4,2.2C77,292.1,77.4,292.3,77.9,292.3z M83.9,285.7c0.8,0,1.4,0.3,1.9,0.9
				c0.5,0.6,0.7,1.6,0.7,2.8c0,1.2-0.2,2.1-0.7,2.8c-0.5,0.6-1.1,0.9-1.9,0.9c-0.8,0-1.4-0.3-1.9-0.9c-0.5-0.6-0.7-1.5-0.7-2.8
				c0-0.8,0.1-1.5,0.3-2.1c0.2-0.6,0.5-1,0.9-1.3C82.9,285.8,83.3,285.7,83.9,285.7z M83.9,292.3c0.5,0,0.9-0.2,1.2-0.7
				c0.3-0.5,0.4-1.2,0.4-2.2c0-1-0.1-1.8-0.4-2.3c-0.3-0.5-0.7-0.7-1.2-0.7c-0.5,0-0.9,0.2-1.2,0.7c-0.3,0.5-0.4,1.2-0.4,2.3
				c0,1,0.1,1.8,0.4,2.2C83,292.1,83.4,292.3,83.9,292.3z M87.4,287.9c0-0.5,0.1-0.9,0.3-1.2c0.2-0.3,0.5-0.6,0.9-0.8
				c0.4-0.2,0.8-0.3,1.3-0.3c0.5,0,0.9,0.1,1.3,0.2c0.4,0.1,0.7,0.4,0.9,0.6c0.2,0.3,0.3,0.6,0.3,1c0,0.4-0.1,0.7-0.3,1
				c-0.2,0.3-0.6,0.5-1,0.7c0.3,0.1,0.6,0.2,0.8,0.4s0.4,0.4,0.6,0.6c0.1,0.2,0.2,0.5,0.2,0.8c0,0.3-0.1,0.6-0.2,0.9
				c-0.1,0.3-0.3,0.5-0.6,0.7c-0.3,0.2-0.5,0.3-0.9,0.4c-0.3,0.1-0.7,0.1-1.1,0.1c-0.5,0-0.9-0.1-1.3-0.3c-0.4-0.2-0.7-0.4-0.9-0.8
				c-0.2-0.3-0.3-0.7-0.3-1.2h0.9c0.1,0.4,0.3,0.8,0.5,1c0.3,0.2,0.7,0.4,1.1,0.4c0.4,0,0.7-0.1,0.9-0.2c0.3-0.1,0.5-0.3,0.6-0.5
				s0.2-0.4,0.2-0.7c0-0.3-0.1-0.5-0.2-0.7c-0.2-0.2-0.4-0.4-0.7-0.5c-0.3-0.1-0.6-0.2-0.9-0.2l-0.7,0v-0.8l0.6,0
				c0.3,0,0.6-0.1,0.8-0.2c0.3-0.1,0.4-0.3,0.6-0.5c0.1-0.2,0.2-0.4,0.2-0.6c0-0.2-0.1-0.4-0.2-0.6c-0.1-0.2-0.3-0.3-0.5-0.4
				c-0.2-0.1-0.5-0.2-0.8-0.2c-0.3,0-0.5,0.1-0.7,0.2c-0.2,0.1-0.4,0.3-0.6,0.5s-0.2,0.5-0.2,0.8H87.4z"/>
			<path class="st11" d="M191.4,293.1c-1.1,0-2-0.2-2.7-0.7c-0.7-0.5-1.1-1.2-1.2-2.1l2,0c0.1,0.4,0.3,0.8,0.7,1
				c0.3,0.2,0.8,0.3,1.3,0.3c0.3,0,0.6,0,0.8-0.1c0.2-0.1,0.4-0.2,0.6-0.4c0.1-0.2,0.2-0.4,0.2-0.6c0-0.3-0.1-0.6-0.3-0.8
				c-0.2-0.2-0.6-0.3-1-0.4l-1.5-0.3c-0.7-0.1-1.3-0.4-1.7-0.9c-0.4-0.4-0.6-1-0.7-1.7c0-0.6,0.2-1.1,0.5-1.5c0.3-0.4,0.8-0.8,1.3-1
				c0.6-0.2,1.2-0.4,1.9-0.4c0.7,0,1.3,0.1,1.8,0.4c0.5,0.3,0.9,0.6,1.2,1c0.3,0.4,0.4,0.9,0.4,1.4l-1.9,0c-0.1-0.4-0.2-0.7-0.4-1
				c-0.2-0.2-0.6-0.4-1.1-0.4c-0.3,0-0.5,0-0.7,0.1c-0.2,0.1-0.4,0.1-0.5,0.2c-0.1,0.1-0.3,0.2-0.3,0.4c-0.1,0.1-0.1,0.3-0.1,0.5
				c0,0.3,0.1,0.5,0.3,0.6c0.2,0.2,0.5,0.3,1,0.4l1.5,0.4c0.9,0.2,1.5,0.6,1.8,1c0.4,0.5,0.6,1.1,0.6,1.8c0,0.5-0.1,1-0.4,1.4
				c-0.3,0.4-0.7,0.7-1.3,0.9C192.8,293,192.1,293.1,191.4,293.1z M190.6,282.3h1.6v1.7h-1.6V282.3z M190.5,292.6h1.6v1.7h-1.6
				V292.6z M199.9,283.5c0.6,0,1.2,0.1,1.7,0.3c0.5,0.2,0.9,0.5,1.2,0.9c0.3,0.4,0.4,0.9,0.4,1.4c0,0.5-0.1,0.9-0.4,1.2
				c-0.3,0.3-0.6,0.6-1,0.8c0.3,0.1,0.6,0.2,0.8,0.4c0.3,0.2,0.5,0.5,0.7,0.8c0.2,0.3,0.3,0.7,0.3,1c0,0.6-0.2,1-0.5,1.5
				c-0.3,0.4-0.8,0.7-1.3,1c-0.6,0.2-1.2,0.3-2,0.3c-0.8,0-1.4-0.1-2-0.3c-0.6-0.2-1-0.5-1.3-1c-0.3-0.4-0.5-0.9-0.5-1.5
				c0-0.4,0.1-0.7,0.3-1c0.2-0.3,0.4-0.6,0.7-0.8c0.3-0.2,0.6-0.4,0.8-0.4c-0.4-0.2-0.7-0.4-1-0.8c-0.3-0.3-0.4-0.7-0.4-1.2
				c0-0.6,0.1-1.1,0.4-1.4c0.3-0.4,0.7-0.7,1.2-0.9C198.7,283.6,199.3,283.5,199.9,283.5z M199.9,287.4c0.4,0,0.8-0.1,1.1-0.3
				c0.3-0.2,0.4-0.6,0.4-1c0-0.4-0.1-0.7-0.4-1c-0.3-0.2-0.6-0.4-1.1-0.4c-0.4,0-0.8,0.1-1.1,0.4c-0.3,0.2-0.4,0.6-0.4,1
				c0,0.4,0.1,0.7,0.4,1C199.1,287.3,199.5,287.4,199.9,287.4z M199.9,291.7c0.6,0,1-0.1,1.3-0.4c0.3-0.3,0.5-0.6,0.5-1
				c0-0.3-0.1-0.5-0.2-0.7c-0.1-0.2-0.3-0.4-0.6-0.5c-0.3-0.1-0.6-0.2-0.9-0.2c-0.4,0-0.7,0.1-0.9,0.2c-0.3,0.1-0.5,0.3-0.6,0.5
				c-0.1,0.2-0.2,0.5-0.2,0.7c0,0.4,0.2,0.7,0.5,1C198.9,291.6,199.4,291.7,199.9,291.7z M206.4,293v-7h-1.7v-1.1c0.5,0,1,0,1.3-0.1
				c0.3-0.1,0.6-0.3,0.7-0.4c0.2-0.2,0.3-0.4,0.3-0.7h1.3v9.4H206.4z M213.8,283.5c1.1,0,2,0.4,2.6,1.3c0.6,0.8,1,2,1,3.6
				c0,1.6-0.3,2.7-1,3.6c-0.6,0.8-1.5,1.2-2.7,1.2c-1.1,0-2-0.4-2.7-1.2c-0.6-0.8-1-2-1-3.6c0-1,0.1-1.9,0.4-2.6
				c0.3-0.7,0.7-1.3,1.3-1.6C212.4,283.7,213.1,283.5,213.8,283.5z M213.8,291.6c0.6,0,1-0.2,1.2-0.7c0.3-0.5,0.4-1.3,0.4-2.5
				c0-1.2-0.1-2.1-0.4-2.6c-0.3-0.5-0.7-0.8-1.2-0.8c-0.6,0-1,0.3-1.2,0.8c-0.3,0.5-0.4,1.4-0.4,2.6c0,1.2,0.1,2,0.4,2.5
				C212.8,291.3,213.3,291.6,213.8,291.6z"/>
		</g>
	</g>
	<g>
		<path class="st8" d="M35,317h194c2.8,0,5,2.2,5,5v30c0,2.8-2.2,5-5,5H35c-2.8,0-5-2.2-5-5v-30C30,319.2,32.2,317,35,317z"/>
	</g>
	<g>
		<defs>
			<rect id="SVGID_00000147213016679428855760000008424103221260771972_" x="46" y="328" width="172" height="18"/>
		</defs>
		<clipPath id="SVGID_00000142885664426660671900000011151485978466848930_">
			<use xlink:href="#SVGID_00000147213016679428855760000008424103221260771972_"  style="overflow:visible;"/>
		</clipPath>
		<g style="clip-path:url(#SVGID_00000142885664426660671900000011151485978466848930_);">
			<path class="st10" d="M47,333.8h0.9v7.2H47V333.8z M52.2,336.5H51v3.2c0,0.2,0,0.3,0.1,0.4c0,0.1,0.1,0.1,0.2,0.2
				c0.1,0,0.2,0,0.4,0h0.6v0.6c-0.1,0-0.2,0-0.3,0.1c-0.1,0-0.3,0-0.5,0c-0.4,0-0.6,0-0.8-0.1c-0.2-0.1-0.3-0.2-0.4-0.4
				c-0.1-0.2-0.1-0.4-0.1-0.7v-3.2h-0.8v-0.7h0.9l0.2-1.5H51v1.5h1.2V336.5z M53.9,338.6c0,0.3,0.1,0.6,0.2,0.9
				c0.1,0.3,0.3,0.5,0.5,0.6c0.2,0.2,0.5,0.2,0.8,0.2c0.3,0,0.6-0.1,0.8-0.2c0.2-0.2,0.4-0.4,0.5-0.7h0.9c-0.1,0.4-0.2,0.6-0.4,0.9
				s-0.5,0.4-0.8,0.5c-0.3,0.1-0.6,0.2-1,0.2c-0.5,0-0.9-0.1-1.3-0.3c-0.4-0.2-0.7-0.5-0.9-0.9S53,339,53,338.5c0-0.5,0.1-1,0.3-1.4
				c0.2-0.4,0.5-0.7,0.8-1c0.4-0.2,0.8-0.3,1.3-0.3c0.5,0,0.9,0.1,1.2,0.3c0.3,0.2,0.6,0.5,0.8,0.9c0.2,0.4,0.3,0.8,0.3,1.4v0.3
				H53.9z M53.9,338h2.8c0-0.3,0-0.6-0.1-0.8c-0.1-0.2-0.3-0.4-0.5-0.6c-0.2-0.1-0.5-0.2-0.8-0.2c-0.3,0-0.6,0.1-0.8,0.2
				c-0.2,0.2-0.4,0.4-0.5,0.6C54,337.5,53.9,337.7,53.9,338z M58.8,341v-5.2h0.9v0.8c0.1-0.2,0.3-0.4,0.6-0.6c0.3-0.2,0.6-0.3,1-0.3
				c0.2,0,0.4,0,0.6,0.1c0.2,0.1,0.4,0.2,0.5,0.3c0.2,0.1,0.3,0.3,0.4,0.5c0.2-0.3,0.4-0.5,0.7-0.6c0.3-0.2,0.6-0.2,0.9-0.2
				c0.2,0,0.4,0,0.6,0.1c0.2,0.1,0.4,0.1,0.5,0.3c0.2,0.1,0.3,0.3,0.4,0.6c0.1,0.2,0.2,0.6,0.2,0.9v3.4h-0.9v-3.3
				c0-0.3,0-0.6-0.2-0.7c-0.1-0.2-0.2-0.3-0.4-0.4c-0.2-0.1-0.3-0.1-0.5-0.1c-0.2,0-0.3,0-0.5,0.1c-0.2,0.1-0.3,0.2-0.5,0.3
				s-0.2,0.4-0.2,0.6v3.5H62v-3.6c0-0.2-0.1-0.4-0.2-0.5c-0.1-0.1-0.2-0.2-0.4-0.3c-0.2-0.1-0.3-0.1-0.5-0.1c-0.2,0-0.4,0-0.5,0.1
				c-0.2,0.1-0.3,0.2-0.4,0.3c-0.1,0.2-0.2,0.3-0.2,0.6v3.5H58.8z M71.7,333.8l-1.1,7.2l-0.6-0.1l1.1-7.2L71.7,333.8z M73.8,333.8
				l-1.1,7.2l-0.6-0.1l1.1-7.2L73.8,333.8z M74.2,338.1v0.6h-4.9v-0.6H74.2z M74.5,336v0.6h-4.9V336H74.5z M77.9,333.7
				c0.8,0,1.4,0.3,1.9,0.9c0.5,0.6,0.7,1.6,0.7,2.8c0,1.2-0.2,2.1-0.7,2.8c-0.5,0.6-1.1,0.9-1.9,0.9c-0.8,0-1.4-0.3-1.9-0.9
				c-0.5-0.6-0.7-1.5-0.7-2.8c0-0.8,0.1-1.5,0.3-2.1c0.2-0.6,0.5-1,0.9-1.3C76.9,333.8,77.4,333.7,77.9,333.7z M77.9,340.3
				c0.5,0,0.9-0.2,1.2-0.7c0.3-0.5,0.4-1.2,0.4-2.2c0-1-0.1-1.8-0.4-2.3c-0.3-0.5-0.7-0.7-1.2-0.7c-0.5,0-0.9,0.2-1.2,0.7
				c-0.3,0.5-0.4,1.2-0.4,2.3c0,1,0.1,1.8,0.4,2.2C77,340.1,77.4,340.3,77.9,340.3z M83.9,333.7c0.8,0,1.4,0.3,1.9,0.9
				c0.5,0.6,0.7,1.6,0.7,2.8c0,1.2-0.2,2.1-0.7,2.8c-0.5,0.6-1.1,0.9-1.9,0.9c-0.8,0-1.4-0.3-1.9-0.9c-0.5-0.6-0.7-1.5-0.7-2.8
				c0-0.8,0.1-1.5,0.3-2.1c0.2-0.6,0.5-1,0.9-1.3C82.9,333.8,83.3,333.7,83.9,333.7z M83.9,340.3c0.5,0,0.9-0.2,1.2-0.7
				c0.3-0.5,0.4-1.2,0.4-2.2c0-1-0.1-1.8-0.4-2.3c-0.3-0.5-0.7-0.7-1.2-0.7c-0.5,0-0.9,0.2-1.2,0.7c-0.3,0.5-0.4,1.2-0.4,2.3
				c0,1,0.1,1.8,0.4,2.2C83,340.1,83.4,340.3,83.9,340.3z M90.7,333.8h0.9v4.6h1.2v0.8h-1.2v1.8h-0.9v-1.8h-3.4v-0.8L90.7,333.8z
				 M88.2,338.3h2.5V335L88.2,338.3z"/>
			<path class="st11" d="M183.2,341.1c-1.1,0-2-0.2-2.7-0.7c-0.7-0.5-1.1-1.2-1.2-2.1l2,0c0.1,0.4,0.3,0.8,0.7,1
				c0.3,0.2,0.8,0.3,1.3,0.3c0.3,0,0.6,0,0.8-0.1c0.2-0.1,0.4-0.2,0.6-0.4c0.1-0.2,0.2-0.4,0.2-0.6c0-0.3-0.1-0.6-0.3-0.8
				c-0.2-0.2-0.6-0.3-1-0.4l-1.5-0.3c-0.7-0.1-1.3-0.4-1.7-0.9c-0.4-0.4-0.6-1-0.7-1.7c0-0.6,0.2-1.1,0.5-1.5c0.3-0.4,0.8-0.8,1.3-1
				c0.6-0.2,1.2-0.4,1.9-0.4c0.7,0,1.3,0.1,1.8,0.4c0.5,0.3,0.9,0.6,1.2,1c0.3,0.4,0.4,0.9,0.4,1.4l-1.9,0c-0.1-0.4-0.2-0.7-0.4-1
				c-0.2-0.2-0.6-0.4-1.1-0.4c-0.3,0-0.5,0-0.7,0.1c-0.2,0.1-0.4,0.1-0.5,0.2c-0.1,0.1-0.3,0.2-0.3,0.4c-0.1,0.1-0.1,0.3-0.1,0.5
				c0,0.3,0.1,0.5,0.3,0.6c0.2,0.2,0.5,0.3,1,0.4l1.5,0.4c0.9,0.2,1.5,0.6,1.8,1c0.4,0.5,0.6,1.1,0.6,1.8c0,0.5-0.1,1-0.4,1.4
				c-0.3,0.4-0.7,0.7-1.3,0.9C184.6,341,183.9,341.1,183.2,341.1z M182.4,330.3h1.6v1.7h-1.6V330.3z M182.4,340.6h1.6v1.7h-1.6
				V340.6z M189.6,341v-7h-1.7v-1.1c0.5,0,1,0,1.3-0.1c0.3-0.1,0.6-0.3,0.7-0.4c0.2-0.2,0.3-0.4,0.3-0.7h1.3v9.4H189.6z M197,331.5
				c1.1,0,2,0.4,2.6,1.3c0.6,0.8,1,2,1,3.6c0,1.6-0.3,2.7-1,3.6c-0.6,0.8-1.5,1.2-2.7,1.2c-1.1,0-2-0.4-2.7-1.2c-0.6-0.8-1-2-1-3.6
				c0-1,0.1-1.9,0.4-2.6c0.3-0.7,0.7-1.3,1.3-1.6C195.6,331.7,196.3,331.5,197,331.5z M197,339.6c0.6,0,1-0.2,1.2-0.7
				c0.3-0.5,0.4-1.3,0.4-2.5c0-1.2-0.1-2.1-0.4-2.6c-0.3-0.5-0.7-0.8-1.2-0.8c-0.6,0-1,0.3-1.2,0.8c-0.3,0.5-0.4,1.4-0.4,2.6
				c0,1.2,0.1,2,0.4,2.5C196,339.3,196.4,339.6,197,339.6z M205.9,331.6h1.9v5.7h1.4v1.6h-1.4v2.1h-1.8l0-2.1h-4.3v-1.6L205.9,331.6
				z M203.4,337.3h2.6v-3.4L203.4,337.3z M214.3,331.6h1.9v5.7h1.4v1.6h-1.4v2.1h-1.8l0-2.1H210v-1.6L214.3,331.6z M211.8,337.3h2.6
				v-3.4L211.8,337.3z"/>
		</g>
	</g>
	<g>
		<path class="st8" d="M35,365h194c2.8,0,5,2.2,5,5v30c0,2.8-2.2,5-5,5H35c-2.8,0-5-2.2-5-5v-30C30,367.2,32.2,365,35,365z"/>
	</g>
	<g>
		<defs>
			<rect id="SVGID_00000162312864881895232840000001708773045804577167_" x="46" y="376" width="172" height="18"/>
		</defs>
		<clipPath id="SVGID_00000041258749189931298810000001492000434319294348_">
			<use xlink:href="#SVGID_00000162312864881895232840000001708773045804577167_"  style="overflow:visible;"/>
		</clipPath>
		<g style="clip-path:url(#SVGID_00000041258749189931298810000001492000434319294348_);">
			<path class="st10" d="M47,381.8h0.9v7.2H47V381.8z M52.2,384.5H51v3.2c0,0.2,0,0.3,0.1,0.4c0,0.1,0.1,0.1,0.2,0.2
				c0.1,0,0.2,0,0.4,0h0.6v0.6c-0.1,0-0.2,0-0.3,0.1c-0.1,0-0.3,0-0.5,0c-0.4,0-0.6,0-0.8-0.1c-0.2-0.1-0.3-0.2-0.4-0.4
				c-0.1-0.2-0.1-0.4-0.1-0.7v-3.2h-0.8v-0.7h0.9l0.2-1.5H51v1.5h1.2V384.5z M53.9,386.6c0,0.3,0.1,0.6,0.2,0.9
				c0.1,0.3,0.3,0.5,0.5,0.6c0.2,0.2,0.5,0.2,0.8,0.2c0.3,0,0.6-0.1,0.8-0.2c0.2-0.2,0.4-0.4,0.5-0.7h0.9c-0.1,0.4-0.2,0.6-0.4,0.9
				s-0.5,0.4-0.8,0.5c-0.3,0.1-0.6,0.2-1,0.2c-0.5,0-0.9-0.1-1.3-0.3c-0.4-0.2-0.7-0.5-0.9-0.9S53,387,53,386.5c0-0.5,0.1-1,0.3-1.4
				c0.2-0.4,0.5-0.7,0.8-1c0.4-0.2,0.8-0.3,1.3-0.3c0.5,0,0.9,0.1,1.2,0.3c0.3,0.2,0.6,0.5,0.8,0.9c0.2,0.4,0.3,0.8,0.3,1.4v0.3
				H53.9z M53.9,386h2.8c0-0.3,0-0.6-0.1-0.8c-0.1-0.2-0.3-0.4-0.5-0.6c-0.2-0.1-0.5-0.2-0.8-0.2c-0.3,0-0.6,0.1-0.8,0.2
				c-0.2,0.2-0.4,0.4-0.5,0.6C54,385.5,53.9,385.7,53.9,386z M58.8,389v-5.2h0.9v0.8c0.1-0.2,0.3-0.4,0.6-0.6c0.3-0.2,0.6-0.3,1-0.3
				c0.2,0,0.4,0,0.6,0.1c0.2,0.1,0.4,0.2,0.5,0.3c0.2,0.1,0.3,0.3,0.4,0.5c0.2-0.3,0.4-0.5,0.7-0.6c0.3-0.2,0.6-0.2,0.9-0.2
				c0.2,0,0.4,0,0.6,0.1c0.2,0.1,0.4,0.1,0.5,0.3c0.2,0.1,0.3,0.3,0.4,0.6c0.1,0.2,0.2,0.6,0.2,0.9v3.4h-0.9v-3.3
				c0-0.3,0-0.6-0.2-0.7c-0.1-0.2-0.2-0.3-0.4-0.4c-0.2-0.1-0.3-0.1-0.5-0.1c-0.2,0-0.3,0-0.5,0.1c-0.2,0.1-0.3,0.2-0.5,0.3
				s-0.2,0.4-0.2,0.6v3.5H62v-3.6c0-0.2-0.1-0.4-0.2-0.5c-0.1-0.1-0.2-0.2-0.4-0.3c-0.2-0.1-0.3-0.1-0.5-0.1c-0.2,0-0.4,0-0.5,0.1
				c-0.2,0.1-0.3,0.2-0.4,0.3c-0.1,0.2-0.2,0.3-0.2,0.6v3.5H58.8z M71.7,381.8l-1.1,7.2l-0.6-0.1l1.1-7.2L71.7,381.8z M73.8,381.8
				l-1.1,7.2l-0.6-0.1l1.1-7.2L73.8,381.8z M74.2,386.1v0.6h-4.9v-0.6H74.2z M74.5,384v0.6h-4.9V384H74.5z M77.9,381.7
				c0.8,0,1.4,0.3,1.9,0.9c0.5,0.6,0.7,1.6,0.7,2.8c0,1.2-0.2,2.1-0.7,2.8c-0.5,0.6-1.1,0.9-1.9,0.9c-0.8,0-1.4-0.3-1.9-0.9
				c-0.5-0.6-0.7-1.5-0.7-2.8c0-0.8,0.1-1.5,0.3-2.1c0.2-0.6,0.5-1,0.9-1.3C76.9,381.8,77.4,381.7,77.9,381.7z M77.9,388.3
				c0.5,0,0.9-0.2,1.2-0.7c0.3-0.5,0.4-1.2,0.4-2.2c0-1-0.1-1.8-0.4-2.3c-0.3-0.5-0.7-0.7-1.2-0.7c-0.5,0-0.9,0.2-1.2,0.7
				c-0.3,0.5-0.4,1.2-0.4,2.3c0,1,0.1,1.8,0.4,2.2C77,388.1,77.4,388.3,77.9,388.3z M83.9,381.7c0.8,0,1.4,0.3,1.9,0.9
				c0.5,0.6,0.7,1.6,0.7,2.8c0,1.2-0.2,2.1-0.7,2.8c-0.5,0.6-1.1,0.9-1.9,0.9c-0.8,0-1.4-0.3-1.9-0.9c-0.5-0.6-0.7-1.5-0.7-2.8
				c0-0.8,0.1-1.5,0.3-2.1c0.2-0.6,0.5-1,0.9-1.3C82.9,381.8,83.3,381.7,83.9,381.7z M83.9,388.3c0.5,0,0.9-0.2,1.2-0.7
				c0.3-0.5,0.4-1.2,0.4-2.2c0-1-0.1-1.8-0.4-2.3c-0.3-0.5-0.7-0.7-1.2-0.7c-0.5,0-0.9,0.2-1.2,0.7c-0.3,0.5-0.4,1.2-0.4,2.3
				c0,1,0.1,1.8,0.4,2.2C83,388.1,83.4,388.3,83.9,388.3z M88,381.8h4.3l0,0.8h-3.5l-0.2,2.3c0.2-0.2,0.5-0.4,0.8-0.5
				c0.3-0.1,0.6-0.1,0.9-0.1c0.4,0,0.8,0.1,1.2,0.3c0.4,0.2,0.7,0.4,0.9,0.8c0.2,0.3,0.3,0.8,0.3,1.3c0,0.5-0.1,0.9-0.3,1.3
				c-0.2,0.4-0.5,0.7-0.9,0.9c-0.4,0.2-0.9,0.3-1.4,0.3c-0.4,0-0.9-0.1-1.2-0.2c-0.4-0.2-0.7-0.4-1-0.7c-0.3-0.3-0.5-0.6-0.6-1
				l0.8-0.3c0.1,0.3,0.3,0.5,0.4,0.7c0.2,0.2,0.4,0.4,0.7,0.5s0.5,0.2,0.8,0.2c0.5,0,0.9-0.1,1.2-0.4c0.3-0.3,0.5-0.7,0.5-1.2
				c0-0.3-0.1-0.6-0.2-0.8c-0.1-0.2-0.3-0.4-0.6-0.6c-0.2-0.1-0.5-0.2-0.8-0.2c-0.2,0-0.4,0-0.6,0.1c-0.2,0-0.3,0.1-0.5,0.2
				c-0.2,0.1-0.3,0.3-0.5,0.5c0,0,0,0,0,0c0,0,0,0-0.1,0l-0.8-0.2L88,381.8z"/>
			<path class="st11" d="M197,389.1c-1.1,0-2-0.2-2.7-0.7c-0.7-0.5-1.1-1.2-1.2-2.1l2,0c0.1,0.4,0.3,0.8,0.7,1
				c0.3,0.2,0.8,0.3,1.3,0.3c0.3,0,0.6,0,0.8-0.1c0.2-0.1,0.4-0.2,0.6-0.4c0.1-0.2,0.2-0.4,0.2-0.6c0-0.3-0.1-0.6-0.3-0.8
				c-0.2-0.2-0.6-0.3-1-0.4l-1.5-0.3c-0.7-0.1-1.3-0.4-1.7-0.9c-0.4-0.4-0.6-1-0.7-1.7c0-0.6,0.2-1.1,0.5-1.5c0.3-0.4,0.8-0.8,1.3-1
				c0.6-0.2,1.2-0.4,1.9-0.4c0.7,0,1.3,0.1,1.8,0.4c0.5,0.3,0.9,0.6,1.2,1c0.3,0.4,0.4,0.9,0.4,1.4l-1.9,0c-0.1-0.4-0.2-0.7-0.4-1
				c-0.2-0.2-0.6-0.4-1.1-0.4c-0.3,0-0.5,0-0.7,0.1c-0.2,0.1-0.4,0.1-0.5,0.2c-0.1,0.1-0.3,0.2-0.3,0.4c-0.1,0.1-0.1,0.3-0.1,0.5
				c0,0.3,0.1,0.5,0.3,0.6c0.2,0.2,0.5,0.3,1,0.4l1.5,0.4c0.9,0.2,1.5,0.6,1.8,1c0.4,0.5,0.6,1.1,0.6,1.8c0,0.5-0.1,1-0.4,1.4
				c-0.3,0.4-0.7,0.7-1.3,0.9C198.4,389,197.8,389.1,197,389.1z M196.2,378.3h1.6v1.7h-1.6V378.3z M196.2,388.6h1.6v1.7h-1.6V388.6z
				 M206,379.6h1.9v5.7h1.4v1.6h-1.4v2.1h-1.8l0-2.1h-4.3v-1.6L206,379.6z M203.5,385.3h2.6v-3.4L203.5,385.3z M213.8,379.5
				c1.1,0,2,0.4,2.6,1.3c0.6,0.8,1,2,1,3.6c0,1.6-0.3,2.7-1,3.6c-0.6,0.8-1.5,1.2-2.7,1.2c-1.1,0-2-0.4-2.7-1.2c-0.6-0.8-1-2-1-3.6
				c0-1,0.1-1.9,0.4-2.6c0.3-0.7,0.7-1.3,1.3-1.6C212.4,379.7,213.1,379.5,213.8,379.5z M213.8,387.6c0.6,0,1-0.2,1.2-0.7
				c0.3-0.5,0.4-1.3,0.4-2.5c0-1.2-0.1-2.1-0.4-2.6c-0.3-0.5-0.7-0.8-1.2-0.8c-0.6,0-1,0.3-1.2,0.8c-0.3,0.5-0.4,1.4-0.4,2.6
				c0,1.2,0.1,2,0.4,2.5C212.8,387.3,213.3,387.6,213.8,387.6z"/>
		</g>
	</g>
	<g>
		<path class="st8" d="M35,413h194c2.8,0,5,2.2,5,5v30c0,2.8-2.2,5-5,5H35c-2.8,0-5-2.2-5-5v-30C30,415.2,32.2,413,35,413z"/>
	</g>
	<g>
		<defs>
			<rect id="SVGID_00000104671900749518417530000010386515758656720521_" x="46" y="424" width="172" height="18"/>
		</defs>
		<clipPath id="SVGID_00000081625862038789947550000008176229813746001828_">
			<use xlink:href="#SVGID_00000104671900749518417530000010386515758656720521_"  style="overflow:visible;"/>
		</clipPath>
		<g style="clip-path:url(#SVGID_00000081625862038789947550000008176229813746001828_);">
			<path class="st10" d="M47,429.8h0.9v7.2H47V429.8z M52.2,432.5H51v3.2c0,0.2,0,0.3,0.1,0.4c0,0.1,0.1,0.1,0.2,0.2
				c0.1,0,0.2,0,0.4,0h0.6v0.6c-0.1,0-0.2,0-0.3,0.1c-0.1,0-0.3,0-0.5,0c-0.4,0-0.6,0-0.8-0.1c-0.2-0.1-0.3-0.2-0.4-0.4
				c-0.1-0.2-0.1-0.4-0.1-0.7v-3.2h-0.8v-0.7h0.9l0.2-1.5H51v1.5h1.2V432.5z M53.9,434.6c0,0.3,0.1,0.6,0.2,0.9
				c0.1,0.3,0.3,0.5,0.5,0.6c0.2,0.2,0.5,0.2,0.8,0.2c0.3,0,0.6-0.1,0.8-0.2c0.2-0.2,0.4-0.4,0.5-0.7h0.9c-0.1,0.4-0.2,0.6-0.4,0.9
				s-0.5,0.4-0.8,0.5c-0.3,0.1-0.6,0.2-1,0.2c-0.5,0-0.9-0.1-1.3-0.3c-0.4-0.2-0.7-0.5-0.9-0.9S53,435,53,434.5c0-0.5,0.1-1,0.3-1.4
				c0.2-0.4,0.5-0.7,0.8-1c0.4-0.2,0.8-0.3,1.3-0.3c0.5,0,0.9,0.1,1.2,0.3c0.3,0.2,0.6,0.5,0.8,0.9c0.2,0.4,0.3,0.8,0.3,1.4v0.3
				H53.9z M53.9,434h2.8c0-0.3,0-0.6-0.1-0.8c-0.1-0.2-0.3-0.4-0.5-0.6c-0.2-0.1-0.5-0.2-0.8-0.2c-0.3,0-0.6,0.1-0.8,0.2
				c-0.2,0.2-0.4,0.4-0.5,0.6C54,433.5,53.9,433.7,53.9,434z M58.8,437v-5.2h0.9v0.8c0.1-0.2,0.3-0.4,0.6-0.6c0.3-0.2,0.6-0.3,1-0.3
				c0.2,0,0.4,0,0.6,0.1c0.2,0.1,0.4,0.2,0.5,0.3c0.2,0.1,0.3,0.3,0.4,0.5c0.2-0.3,0.4-0.5,0.7-0.6c0.3-0.2,0.6-0.2,0.9-0.2
				c0.2,0,0.4,0,0.6,0.1c0.2,0.1,0.4,0.1,0.5,0.3c0.2,0.1,0.3,0.3,0.4,0.6c0.1,0.2,0.2,0.6,0.2,0.9v3.4h-0.9v-3.3
				c0-0.3,0-0.6-0.2-0.7c-0.1-0.2-0.2-0.3-0.4-0.4c-0.2-0.1-0.3-0.1-0.5-0.1c-0.2,0-0.3,0-0.5,0.1c-0.2,0.1-0.3,0.2-0.5,0.3
				s-0.2,0.4-0.2,0.6v3.5H62v-3.6c0-0.2-0.1-0.4-0.2-0.5c-0.1-0.1-0.2-0.2-0.4-0.3c-0.2-0.1-0.3-0.1-0.5-0.1c-0.2,0-0.4,0-0.5,0.1
				c-0.2,0.1-0.3,0.2-0.4,0.3c-0.1,0.2-0.2,0.3-0.2,0.6v3.5H58.8z M71.7,429.8l-1.1,7.2l-0.6-0.1l1.1-7.2L71.7,429.8z M73.8,429.8
				l-1.1,7.2l-0.6-0.1l1.1-7.2L73.8,429.8z M74.2,434.1v0.6h-4.9v-0.6H74.2z M74.5,432v0.6h-4.9V432H74.5z M77.9,429.7
				c0.8,0,1.4,0.3,1.9,0.9c0.5,0.6,0.7,1.6,0.7,2.8c0,1.2-0.2,2.1-0.7,2.8c-0.5,0.6-1.1,0.9-1.9,0.9c-0.8,0-1.4-0.3-1.9-0.9
				c-0.5-0.6-0.7-1.5-0.7-2.8c0-0.8,0.1-1.5,0.3-2.1c0.2-0.6,0.5-1,0.9-1.3C76.9,429.8,77.4,429.7,77.9,429.7z M77.9,436.3
				c0.5,0,0.9-0.2,1.2-0.7c0.3-0.5,0.4-1.2,0.4-2.2c0-1-0.1-1.8-0.4-2.3c-0.3-0.5-0.7-0.7-1.2-0.7c-0.5,0-0.9,0.2-1.2,0.7
				c-0.3,0.5-0.4,1.2-0.4,2.3c0,1,0.1,1.8,0.4,2.2C77,436.1,77.4,436.3,77.9,436.3z M83.9,429.7c0.8,0,1.4,0.3,1.9,0.9
				c0.5,0.6,0.7,1.6,0.7,2.8c0,1.2-0.2,2.1-0.7,2.8c-0.5,0.6-1.1,0.9-1.9,0.9c-0.8,0-1.4-0.3-1.9-0.9c-0.5-0.6-0.7-1.5-0.7-2.8
				c0-0.8,0.1-1.5,0.3-2.1c0.2-0.6,0.5-1,0.9-1.3C82.9,429.8,83.3,429.7,83.9,429.7z M83.9,436.3c0.5,0,0.9-0.2,1.2-0.7
				c0.3-0.5,0.4-1.2,0.4-2.2c0-1-0.1-1.8-0.4-2.3c-0.3-0.5-0.7-0.7-1.2-0.7c-0.5,0-0.9,0.2-1.2,0.7c-0.3,0.5-0.4,1.2-0.4,2.3
				c0,1,0.1,1.8,0.4,2.2C83,436.1,83.4,436.3,83.9,436.3z M90.1,429.7c0.4,0,0.8,0.1,1.1,0.2c0.3,0.2,0.6,0.4,0.8,0.6s0.4,0.6,0.4,1
				h-0.9c-0.1-0.3-0.3-0.6-0.5-0.8c-0.3-0.2-0.6-0.3-1-0.3c-0.4,0-0.8,0.1-1.1,0.4c-0.3,0.2-0.5,0.6-0.6,1.1c-0.1,0.5-0.2,1-0.1,1.7
				c0.1-0.2,0.2-0.5,0.4-0.6c0.2-0.2,0.4-0.3,0.7-0.4c0.2-0.1,0.5-0.2,0.8-0.2c0.5,0,0.9,0.1,1.3,0.3c0.4,0.2,0.6,0.4,0.8,0.8
				c0.2,0.3,0.3,0.7,0.3,1.2c0,0.5-0.1,0.9-0.3,1.3c-0.2,0.4-0.5,0.7-0.9,0.9c-0.4,0.2-0.8,0.3-1.3,0.3c-0.6,0-1-0.1-1.5-0.4
				c-0.4-0.3-0.7-0.7-1-1.2c-0.2-0.5-0.3-1.2-0.3-1.9c0-0.8,0.1-1.4,0.3-2c0.2-0.6,0.5-1,1-1.3C89,429.8,89.5,429.7,90.1,429.7z
				 M90,433.1c-0.3,0-0.5,0.1-0.8,0.2c-0.2,0.1-0.4,0.3-0.6,0.5c-0.2,0.2-0.2,0.4-0.2,0.7c0,0.4,0.1,0.7,0.2,1
				c0.1,0.3,0.3,0.5,0.6,0.7c0.2,0.2,0.5,0.2,0.8,0.2c0.3,0,0.6-0.1,0.8-0.2c0.2-0.1,0.4-0.3,0.5-0.6c0.1-0.3,0.2-0.5,0.2-0.9
				c0-0.3-0.1-0.6-0.2-0.9c-0.1-0.2-0.3-0.4-0.5-0.5C90.6,433.2,90.3,433.1,90,433.1z"/>
			<path class="st11" d="M180,437.1c-1.1,0-2-0.2-2.7-0.7c-0.7-0.5-1.1-1.2-1.2-2.1l2,0c0.1,0.4,0.3,0.8,0.7,1
				c0.3,0.2,0.8,0.3,1.3,0.3c0.3,0,0.6,0,0.8-0.1c0.2-0.1,0.4-0.2,0.6-0.4c0.1-0.2,0.2-0.4,0.2-0.6c0-0.3-0.1-0.6-0.3-0.8
				c-0.2-0.2-0.6-0.3-1-0.4l-1.5-0.3c-0.7-0.1-1.3-0.4-1.7-0.9c-0.4-0.4-0.6-1-0.7-1.7c0-0.6,0.2-1.1,0.5-1.5c0.3-0.4,0.8-0.8,1.3-1
				c0.6-0.2,1.2-0.4,1.9-0.4c0.7,0,1.3,0.1,1.8,0.4c0.5,0.3,0.9,0.6,1.2,1c0.3,0.4,0.4,0.9,0.4,1.4l-1.9,0c-0.1-0.4-0.2-0.7-0.4-1
				c-0.2-0.2-0.6-0.4-1.1-0.4c-0.3,0-0.5,0-0.7,0.1c-0.2,0.1-0.4,0.1-0.5,0.2c-0.1,0.1-0.3,0.2-0.3,0.4c-0.1,0.1-0.1,0.3-0.1,0.5
				c0,0.3,0.1,0.5,0.3,0.6c0.2,0.2,0.5,0.3,1,0.4l1.5,0.4c0.9,0.2,1.5,0.6,1.8,1c0.4,0.5,0.6,1.1,0.6,1.8c0,0.5-0.1,1-0.4,1.4
				c-0.3,0.4-0.7,0.7-1.3,0.9C181.4,437,180.7,437.1,180,437.1z M179.2,426.3h1.6v1.7h-1.6V426.3z M179.2,436.6h1.6v1.7h-1.6V436.6z
				 M184.9,437v-0.9v-0.5c0-0.5,0.1-0.9,0.3-1.2c0.2-0.4,0.4-0.7,0.7-0.9c0.3-0.3,0.6-0.5,1-0.7c0.4-0.2,0.7-0.4,1.1-0.6
				s0.7-0.3,1-0.5c0.3-0.2,0.5-0.4,0.7-0.6c0.2-0.2,0.3-0.5,0.3-0.8c0-0.4-0.1-0.7-0.4-0.9c-0.3-0.2-0.6-0.4-1.1-0.4
				c-0.5,0-0.9,0.1-1.2,0.4c-0.3,0.3-0.5,0.7-0.6,1.2h-1.8c0-0.6,0.1-1.1,0.4-1.6c0.3-0.5,0.7-0.9,1.2-1.2c0.5-0.3,1.2-0.4,2-0.4
				c0.7,0,1.3,0.1,1.8,0.4c0.5,0.2,0.9,0.6,1.2,1c0.3,0.4,0.4,0.9,0.4,1.5c0,0.5-0.1,0.9-0.3,1.2c-0.2,0.3-0.4,0.6-0.7,0.9
				c-0.3,0.2-0.6,0.5-0.9,0.6c-0.3,0.2-0.7,0.4-1,0.5c-0.3,0.2-0.7,0.3-0.9,0.5c-0.3,0.2-0.5,0.3-0.7,0.5c-0.2,0.2-0.3,0.4-0.3,0.7
				v0.1h4.8v1.6H184.9z M193.9,427.6h6l-0.1,1.6h-4.5l-0.2,2.3c0.3-0.2,0.7-0.3,1-0.4c0.3-0.1,0.7-0.1,1-0.1c0.6,0,1.2,0.1,1.7,0.4
				c0.5,0.2,0.9,0.6,1.2,1c0.3,0.5,0.4,1,0.4,1.7c0,0.7-0.2,1.2-0.4,1.7c-0.3,0.5-0.7,0.9-1.3,1.1c-0.5,0.3-1.2,0.4-1.9,0.4
				c-0.6,0-1.2-0.1-1.7-0.3c-0.5-0.2-1-0.5-1.4-0.8c-0.4-0.3-0.7-0.7-0.9-1.1l1.5-0.9c0.2,0.3,0.4,0.6,0.6,0.8
				c0.2,0.2,0.5,0.4,0.7,0.6c0.3,0.1,0.6,0.2,1,0.2c0.6,0,1-0.1,1.4-0.4c0.3-0.3,0.5-0.7,0.5-1.2c0-0.3-0.1-0.6-0.2-0.8
				c-0.2-0.2-0.4-0.4-0.6-0.6c-0.3-0.1-0.6-0.2-0.9-0.2c-0.2,0-0.4,0-0.5,0.1c-0.2,0-0.3,0.1-0.5,0.2c-0.2,0.1-0.4,0.2-0.6,0.4
				c-0.1,0-0.1,0-0.1,0c0,0-0.1,0-0.1,0l-1.4-0.6L193.9,427.6z M205.5,427.5c0.6,0,1.1,0.1,1.6,0.3c0.5,0.2,0.9,0.5,1.2,0.9
				c0.3,0.4,0.5,0.9,0.5,1.5h-1.7c-0.1-0.4-0.3-0.7-0.6-0.9c-0.3-0.2-0.6-0.3-1-0.3c-0.5,0-0.8,0.1-1.1,0.4
				c-0.3,0.3-0.5,0.6-0.6,1.1c-0.1,0.5-0.2,1-0.1,1.6c0.1-0.2,0.3-0.4,0.5-0.5c0.2-0.1,0.5-0.3,0.7-0.3c0.3-0.1,0.6-0.1,0.9-0.1
				c0.6,0,1.2,0.1,1.7,0.4c0.5,0.2,0.8,0.6,1.1,1c0.3,0.4,0.4,0.9,0.4,1.5c0,0.6-0.2,1.2-0.5,1.7c-0.3,0.5-0.7,0.9-1.3,1.1
				c-0.5,0.3-1.2,0.4-1.9,0.4c-0.8,0-1.5-0.2-2.1-0.6c-0.6-0.4-1-0.9-1.3-1.6c-0.3-0.7-0.5-1.5-0.5-2.5c0-1,0.2-1.9,0.5-2.7
				c0.3-0.8,0.8-1.3,1.4-1.7C204,427.7,204.7,427.5,205.5,427.5z M205.4,432.5c-0.3,0-0.5,0.1-0.8,0.2c-0.2,0.1-0.5,0.3-0.6,0.5
				c-0.2,0.2-0.2,0.4-0.2,0.6c0,0.4,0.1,0.8,0.2,1.1c0.1,0.3,0.3,0.5,0.6,0.7c0.2,0.2,0.5,0.2,0.9,0.2c0.3,0,0.6-0.1,0.8-0.2
				c0.2-0.1,0.4-0.3,0.6-0.6c0.1-0.3,0.2-0.5,0.2-0.9c0-0.3-0.1-0.6-0.2-0.9c-0.1-0.2-0.3-0.4-0.6-0.5
				C205.9,432.5,205.7,432.5,205.4,432.5z M213.9,427.5c0.6,0,1.1,0.1,1.6,0.3c0.5,0.2,0.9,0.5,1.2,0.9c0.3,0.4,0.5,0.9,0.5,1.5
				h-1.7c-0.1-0.4-0.3-0.7-0.6-0.9c-0.3-0.2-0.6-0.3-1-0.3c-0.5,0-0.8,0.1-1.1,0.4c-0.3,0.3-0.5,0.6-0.6,1.1c-0.1,0.5-0.2,1-0.1,1.6
				c0.1-0.2,0.3-0.4,0.5-0.5c0.2-0.1,0.5-0.3,0.7-0.3c0.3-0.1,0.6-0.1,0.9-0.1c0.6,0,1.2,0.1,1.7,0.4c0.5,0.2,0.8,0.6,1.1,1
				c0.3,0.4,0.4,0.9,0.4,1.5c0,0.6-0.2,1.2-0.5,1.7c-0.3,0.5-0.7,0.9-1.3,1.1c-0.5,0.3-1.2,0.4-1.9,0.4c-0.8,0-1.5-0.2-2.1-0.6
				c-0.6-0.4-1-0.9-1.3-1.6c-0.3-0.7-0.5-1.5-0.5-2.5c0-1,0.2-1.9,0.5-2.7c0.3-0.8,0.8-1.3,1.4-1.7
				C212.4,427.7,213.1,427.5,213.9,427.5z M213.8,432.5c-0.3,0-0.5,0.1-0.8,0.2c-0.2,0.1-0.5,0.3-0.6,0.5c-0.2,0.2-0.2,0.4-0.2,0.6
				c0,0.4,0.1,0.8,0.2,1.1c0.1,0.3,0.3,0.5,0.6,0.7c0.2,0.2,0.5,0.2,0.9,0.2c0.3,0,0.6-0.1,0.8-0.2c0.2-0.1,0.4-0.3,0.6-0.6
				c0.1-0.3,0.2-0.5,0.2-0.9c0-0.3-0.1-0.6-0.2-0.9c-0.1-0.2-0.3-0.4-0.6-0.5C214.4,432.5,214.1,432.5,213.8,432.5z"/>
		</g>
	</g>
	<g>
		<path class="st8" d="M35,461h194c2.8,0,5,2.2,5,5v30c0,2.8-2.2,5-5,5H35c-2.8,0-5-2.2-5-5v-30C30,463.2,32.2,461,35,461z"/>
	</g>
	<g>
		<defs>
			<rect id="SVGID_00000023272300492876756540000002106078474203345320_" x="46" y="472" width="172" height="18"/>
		</defs>
		<clipPath id="SVGID_00000121268654371432718340000004702482329591462066_">
			<use xlink:href="#SVGID_00000023272300492876756540000002106078474203345320_"  style="overflow:visible;"/>
		</clipPath>
		<g style="clip-path:url(#SVGID_00000121268654371432718340000004702482329591462066_);">
			<path class="st11" d="M183,485.1c-1.1,0-2-0.2-2.7-0.7c-0.7-0.5-1.1-1.2-1.2-2.1l2,0c0.1,0.4,0.3,0.8,0.7,1
				c0.3,0.2,0.8,0.3,1.3,0.3c0.3,0,0.6,0,0.8-0.1c0.2-0.1,0.4-0.2,0.6-0.4c0.1-0.2,0.2-0.4,0.2-0.6c0-0.3-0.1-0.6-0.3-0.8
				c-0.2-0.2-0.6-0.3-1-0.4l-1.5-0.3c-0.7-0.1-1.3-0.4-1.7-0.9c-0.4-0.4-0.6-1-0.7-1.7c0-0.6,0.2-1.1,0.5-1.5c0.3-0.4,0.8-0.8,1.3-1
				c0.6-0.2,1.2-0.4,1.9-0.4c0.7,0,1.3,0.1,1.8,0.4c0.5,0.3,0.9,0.6,1.2,1c0.3,0.4,0.4,0.9,0.4,1.4l-1.9,0c-0.1-0.4-0.2-0.7-0.4-1
				c-0.2-0.2-0.6-0.4-1.1-0.4c-0.3,0-0.5,0-0.7,0.1c-0.2,0.1-0.4,0.1-0.5,0.2c-0.1,0.1-0.3,0.2-0.3,0.4c-0.1,0.1-0.1,0.3-0.1,0.5
				c0,0.3,0.1,0.5,0.3,0.6c0.2,0.2,0.5,0.3,1,0.4l1.5,0.4c0.9,0.2,1.5,0.6,1.8,1c0.4,0.5,0.6,1.1,0.6,1.8c0,0.5-0.1,1-0.4,1.4
				c-0.3,0.4-0.7,0.7-1.3,0.9C184.3,485,183.7,485.1,183,485.1z M182.1,474.3h1.6v1.7h-1.6V474.3z M182.1,484.6h1.6v1.7h-1.6V484.6z
				 M191.9,475.6h1.9v5.7h1.4v1.6h-1.4v2.1H192l0-2.1h-4.3v-1.6L191.9,475.6z M189.4,481.3h2.6v-3.4L189.4,481.3z M197.8,485v-7
				h-1.7v-1.1c0.5,0,1,0,1.3-0.2c0.3-0.1,0.6-0.3,0.7-0.4c0.2-0.2,0.3-0.4,0.3-0.7h1.3v9.4H197.8z M205,485.1
				c-0.6,0-1.1-0.1-1.6-0.3c-0.5-0.2-0.9-0.5-1.2-0.9c-0.3-0.4-0.5-0.9-0.5-1.4h1.8c0.1,0.4,0.3,0.7,0.5,0.9c0.3,0.2,0.6,0.3,1,0.3
				c0.5,0,0.8-0.1,1.2-0.3c0.3-0.2,0.6-0.5,0.8-1c0.2-0.5,0.2-1.1,0.2-1.8c-0.1,0.2-0.3,0.4-0.5,0.6c-0.2,0.2-0.5,0.3-0.7,0.4
				c-0.3,0.1-0.6,0.1-1,0.1c-0.6,0-1.2-0.1-1.7-0.4c-0.5-0.2-0.9-0.6-1.2-1c-0.3-0.4-0.4-1-0.4-1.6c0-0.6,0.1-1.2,0.4-1.6
				c0.3-0.5,0.7-0.9,1.2-1.1c0.5-0.3,1.1-0.4,1.9-0.4c0.8,0,1.5,0.2,2.1,0.6c0.6,0.4,1,0.9,1.3,1.6c0.3,0.7,0.5,1.5,0.5,2.4
				c0,1.1-0.2,2.1-0.5,2.8c-0.3,0.7-0.8,1.3-1.4,1.7C206.6,485,205.8,485.1,205,485.1z M205.2,480.1c0.3,0,0.5-0.1,0.8-0.2
				c0.3-0.1,0.5-0.3,0.6-0.5c0.2-0.2,0.2-0.4,0.2-0.6c0-0.4-0.1-0.8-0.2-1.1c-0.1-0.3-0.3-0.5-0.6-0.7c-0.2-0.2-0.5-0.2-0.9-0.2
				c-0.3,0-0.6,0.1-0.8,0.2c-0.2,0.1-0.4,0.3-0.6,0.6c-0.1,0.3-0.2,0.5-0.2,0.9c0,0.5,0.1,0.9,0.4,1.1
				C204.4,480,204.7,480.1,205.2,480.1z M213.5,485.1c-0.6,0-1.1-0.1-1.6-0.3c-0.5-0.2-0.9-0.5-1.2-0.9c-0.3-0.4-0.5-0.9-0.5-1.4
				h1.8c0.1,0.4,0.3,0.7,0.5,0.9c0.3,0.2,0.6,0.3,1,0.3c0.5,0,0.8-0.1,1.2-0.3c0.3-0.2,0.6-0.5,0.8-1c0.2-0.5,0.2-1.1,0.2-1.8
				c-0.1,0.2-0.3,0.4-0.5,0.6c-0.2,0.2-0.5,0.3-0.7,0.4c-0.3,0.1-0.6,0.1-1,0.1c-0.6,0-1.2-0.1-1.7-0.4c-0.5-0.2-0.9-0.6-1.2-1
				c-0.3-0.4-0.4-1-0.4-1.6c0-0.6,0.1-1.2,0.4-1.6c0.3-0.5,0.7-0.9,1.2-1.1c0.5-0.3,1.1-0.4,1.9-0.4c0.8,0,1.5,0.2,2.1,0.6
				c0.6,0.4,1,0.9,1.3,1.6c0.3,0.7,0.5,1.5,0.5,2.4c0,1.1-0.2,2.1-0.5,2.8c-0.3,0.7-0.8,1.3-1.4,1.7
				C215,485,214.3,485.1,213.5,485.1z M213.6,480.1c0.3,0,0.5-0.1,0.8-0.2c0.3-0.1,0.5-0.3,0.6-0.5c0.2-0.2,0.2-0.4,0.2-0.6
				c0-0.4-0.1-0.8-0.2-1.1c-0.1-0.3-0.3-0.5-0.6-0.7c-0.2-0.2-0.5-0.2-0.9-0.2c-0.3,0-0.6,0.1-0.8,0.2c-0.2,0.1-0.4,0.3-0.6,0.6
				c-0.1,0.3-0.2,0.5-0.2,0.9c0,0.5,0.1,0.9,0.4,1.1C212.8,480,213.2,480.1,213.6,480.1z"/>
		</g>
	</g>
	<rect x="15.1" y="12.4" class="st11" width="233" height="114"/>
</g>
<g>
	<defs>
		<rect id="SVGID_00000153691254675825109990000010290211111789481380_" x="30" y="93" width="204" height="56"/>
	</defs>
	<clipPath id="SVGID_00000101786266959950379640000017625823380639350664_">
		<use xlink:href="#SVGID_00000153691254675825109990000010290211111789481380_"  style="overflow:visible;"/>
	</clipPath>
	<g style="clip-path:url(#SVGID_00000101786266959950379640000017625823380639350664_);">
		<g>
			<path class="st8" d="M35,93h194c2.8,0,5,2.2,5,5v46c0,2.8-2.2,5-5,5H35c-2.8,0-5-2.2-5-5V98C30,95.2,32.2,93,35,93z"/>
		</g>
		<path class="st10" d="M46.7,118.6v-0.8h5.5v0.8H50v6.4H49v-6.4H46.7z M54.5,125.1c-0.5,0-0.9-0.1-1.3-0.3
			c-0.4-0.2-0.6-0.5-0.8-0.9c-0.2-0.4-0.3-0.9-0.3-1.5c0-0.5,0.1-1,0.3-1.4c0.2-0.4,0.5-0.7,0.8-0.9c0.4-0.2,0.8-0.3,1.3-0.3
			c0.5,0,0.9,0.1,1.2,0.3c0.4,0.2,0.6,0.5,0.8,0.9c0.2,0.4,0.3,0.9,0.3,1.5c0,0.5-0.1,1-0.3,1.4c-0.2,0.4-0.4,0.7-0.8,0.9
			C55.4,125,55,125.1,54.5,125.1z M54.5,124.4c0.3,0,0.6-0.1,0.8-0.2c0.2-0.2,0.4-0.4,0.5-0.7s0.2-0.6,0.2-1c0-0.4,0-0.7-0.1-1
			c-0.1-0.3-0.3-0.5-0.5-0.7c-0.2-0.2-0.5-0.3-0.8-0.3c-0.3,0-0.6,0.1-0.8,0.2c-0.2,0.2-0.4,0.4-0.5,0.7c-0.1,0.3-0.2,0.6-0.2,1.1
			c0,0.4,0.1,0.7,0.2,1s0.3,0.5,0.5,0.7C53.8,124.3,54.1,124.4,54.5,124.4z M60.4,120.5h-1.2v3.2c0,0.2,0,0.3,0.1,0.4
			c0,0.1,0.1,0.1,0.2,0.2c0.1,0,0.2,0,0.4,0h0.6v0.6c-0.1,0-0.2,0-0.3,0.1c-0.1,0-0.3,0-0.5,0c-0.4,0-0.6,0-0.8-0.1
			c-0.2-0.1-0.3-0.2-0.4-0.4c-0.1-0.2-0.1-0.4-0.1-0.7v-3.2h-0.8v-0.7h0.9l0.2-1.5h0.7v1.5h1.2V120.5z M63,125.1
			c-0.3,0-0.6-0.1-0.9-0.2c-0.3-0.1-0.5-0.3-0.6-0.5c-0.1-0.2-0.2-0.5-0.2-0.8c0-0.6,0.2-1,0.6-1.3c0.4-0.3,1-0.4,1.9-0.5l0.9,0
			v-0.4c0-0.3-0.1-0.6-0.3-0.8c-0.2-0.2-0.5-0.3-0.9-0.3c-0.3,0-0.6,0.1-0.8,0.2c-0.2,0.1-0.4,0.4-0.4,0.7h-0.8
			c0-0.3,0.1-0.6,0.3-0.8c0.2-0.2,0.4-0.4,0.7-0.5c0.3-0.1,0.7-0.2,1.1-0.2c0.4,0,0.8,0.1,1.1,0.2c0.3,0.1,0.5,0.3,0.7,0.6
			c0.1,0.2,0.2,0.6,0.2,0.9v3.6h-0.8l-0.1-1c-0.2,0.4-0.5,0.7-0.8,0.8C63.8,125,63.4,125.1,63,125.1z M63.3,124.4
			c0.2,0,0.3,0,0.5-0.1c0.2-0.1,0.3-0.1,0.5-0.3c0.1-0.1,0.3-0.2,0.3-0.4c0.1-0.1,0.1-0.3,0.1-0.4v-0.9l-0.8,0c-0.4,0-0.7,0-1,0.1
			c-0.3,0.1-0.5,0.2-0.6,0.3c-0.1,0.2-0.2,0.4-0.2,0.6c0,0.3,0.1,0.5,0.3,0.7C62.7,124.4,63,124.4,63.3,124.4z M68.5,125.1
			c-0.3,0-0.5,0-0.7-0.1c-0.2-0.1-0.3-0.2-0.4-0.3c-0.1-0.1-0.2-0.3-0.2-0.4c0-0.2,0-0.3,0-0.5v-6.1h0.9v6c0,0.3,0.1,0.5,0.2,0.6
			c0.1,0.1,0.2,0.2,0.4,0.2l0.3,0v0.6c-0.1,0-0.2,0-0.2,0.1C68.6,125.1,68.6,125.1,68.5,125.1z M72.3,126.6v-6.8h0.9l0,0.9
			c0.1-0.1,0.1-0.2,0.2-0.3c0.1-0.1,0.2-0.2,0.3-0.3c0.1-0.1,0.3-0.2,0.5-0.2c0.2-0.1,0.4-0.1,0.6-0.1c0.4,0,0.8,0.1,1.1,0.3
			c0.3,0.2,0.6,0.5,0.7,0.9s0.3,0.9,0.3,1.5s-0.1,1.1-0.3,1.5c-0.2,0.4-0.4,0.7-0.7,0.9s-0.7,0.3-1.2,0.3c-0.2,0-0.4,0-0.6-0.1
			c-0.2-0.1-0.3-0.1-0.5-0.3c-0.1-0.1-0.2-0.2-0.3-0.3c-0.1-0.1-0.2-0.2-0.2-0.3v2.5H72.3z M74.7,124.4c0.4,0,0.8-0.2,1-0.5
			c0.3-0.3,0.4-0.8,0.4-1.5c0-0.6-0.1-1.1-0.4-1.4c-0.2-0.3-0.6-0.5-1.1-0.5c-0.5,0-0.8,0.2-1.1,0.5c-0.2,0.4-0.4,0.8-0.4,1.4
			c0,0.4,0.1,0.7,0.2,1c0.1,0.3,0.3,0.5,0.5,0.7C74.1,124.3,74.4,124.4,74.7,124.4z M79.5,125.1c-0.3,0-0.6-0.1-0.9-0.2
			c-0.3-0.1-0.5-0.3-0.6-0.5c-0.1-0.2-0.2-0.5-0.2-0.8c0-0.6,0.2-1,0.6-1.3c0.4-0.3,1-0.4,1.9-0.5l0.9,0v-0.4c0-0.3-0.1-0.6-0.3-0.8
			c-0.2-0.2-0.5-0.3-0.9-0.3c-0.3,0-0.6,0.1-0.8,0.2c-0.2,0.1-0.4,0.4-0.4,0.7h-0.8c0-0.3,0.1-0.6,0.3-0.8c0.2-0.2,0.4-0.4,0.7-0.5
			c0.3-0.1,0.7-0.2,1.1-0.2c0.4,0,0.8,0.1,1.1,0.2c0.3,0.1,0.5,0.3,0.7,0.6c0.2,0.2,0.2,0.6,0.2,0.9v3.6h-0.8l-0.1-1
			c-0.2,0.4-0.5,0.7-0.8,0.8C80.2,125,79.9,125.1,79.5,125.1z M79.8,124.4c0.2,0,0.3,0,0.5-0.1c0.2-0.1,0.3-0.1,0.5-0.3
			c0.1-0.1,0.3-0.2,0.3-0.4c0.1-0.1,0.1-0.3,0.1-0.4v-0.9l-0.8,0c-0.4,0-0.7,0-1,0.1c-0.3,0.1-0.5,0.2-0.6,0.3
			c-0.1,0.2-0.2,0.4-0.2,0.6c0,0.3,0.1,0.5,0.3,0.7C79.2,124.4,79.5,124.4,79.8,124.4z M84,126.6c-0.3,0-0.5,0-0.6-0.1
			c-0.1,0-0.2-0.1-0.2-0.1v-0.6l0.5,0c0.2,0,0.4,0,0.5,0c0.1,0,0.2-0.1,0.3-0.1c0.1-0.1,0.1-0.1,0.2-0.2c0-0.1,0.1-0.1,0.1-0.2
			l0.2-0.5l-2-5h0.9l1.5,4l1.5-4h0.9l-2.2,5.6c-0.1,0.3-0.3,0.6-0.4,0.8c-0.2,0.2-0.3,0.3-0.6,0.4C84.5,126.6,84.2,126.6,84,126.6z
			 M88.8,125v-5.2h0.9v0.8c0.1-0.2,0.3-0.4,0.6-0.6s0.6-0.3,1-0.3c0.2,0,0.4,0,0.6,0.1c0.2,0.1,0.4,0.2,0.5,0.3s0.3,0.3,0.4,0.5
			c0.2-0.3,0.4-0.5,0.6-0.6c0.3-0.2,0.6-0.2,0.9-0.2c0.2,0,0.4,0,0.6,0.1c0.2,0.1,0.4,0.1,0.5,0.3c0.2,0.1,0.3,0.3,0.4,0.6
			c0.1,0.2,0.2,0.6,0.2,0.9v3.4H95v-3.3c0-0.3-0.1-0.6-0.2-0.7c-0.1-0.2-0.2-0.3-0.4-0.4c-0.2-0.1-0.3-0.1-0.5-0.1
			c-0.2,0-0.3,0-0.5,0.1c-0.2,0.1-0.3,0.2-0.5,0.3c-0.1,0.2-0.2,0.4-0.2,0.6v3.5h-0.9v-3.6c0-0.2-0.1-0.4-0.2-0.5
			c-0.1-0.1-0.2-0.2-0.4-0.3c-0.2-0.1-0.3-0.1-0.5-0.1c-0.2,0-0.4,0-0.5,0.1c-0.2,0.1-0.3,0.2-0.4,0.3c-0.1,0.1-0.2,0.3-0.2,0.6v3.5
			H88.8z M98,122.6c0,0.3,0.1,0.6,0.2,0.9c0.1,0.3,0.3,0.5,0.5,0.6c0.2,0.2,0.5,0.2,0.8,0.2c0.3,0,0.6-0.1,0.8-0.2
			c0.2-0.2,0.4-0.4,0.5-0.7h0.9c-0.1,0.3-0.2,0.6-0.4,0.9c-0.2,0.2-0.5,0.4-0.8,0.5c-0.3,0.1-0.6,0.2-1,0.2c-0.5,0-0.9-0.1-1.3-0.3
			c-0.4-0.2-0.7-0.5-0.9-0.9c-0.2-0.4-0.3-0.9-0.3-1.4c0-0.5,0.1-1,0.3-1.4c0.2-0.4,0.5-0.7,0.8-1c0.4-0.2,0.8-0.3,1.3-0.3
			c0.5,0,0.9,0.1,1.2,0.3c0.3,0.2,0.6,0.5,0.8,0.9c0.2,0.4,0.3,0.8,0.3,1.4v0.3H98z M98,122h2.8c0-0.3-0.1-0.6-0.1-0.8
			c-0.1-0.2-0.3-0.4-0.5-0.6c-0.2-0.1-0.5-0.2-0.8-0.2c-0.3,0-0.6,0.1-0.8,0.2c-0.2,0.2-0.4,0.4-0.5,0.6C98,121.5,98,121.7,98,122z
			 M102.9,125v-5.2h0.9v0.8c0.1-0.1,0.2-0.3,0.3-0.4c0.2-0.1,0.3-0.2,0.5-0.3c0.2-0.1,0.5-0.1,0.7-0.1c0.3,0,0.6,0.1,0.9,0.2
			c0.3,0.1,0.5,0.3,0.7,0.6c0.2,0.3,0.3,0.6,0.3,1.1v3.4h-0.9v-3.3c0-0.4-0.1-0.7-0.3-0.9c-0.2-0.2-0.5-0.3-0.8-0.3
			c-0.2,0-0.5,0-0.7,0.1c-0.2,0.1-0.4,0.2-0.5,0.3c-0.1,0.1-0.2,0.3-0.2,0.6v3.5H102.9z M111,120.5h-1.2v3.2c0,0.2,0,0.3,0.1,0.4
			c0,0.1,0.1,0.1,0.2,0.2c0.1,0,0.2,0,0.4,0h0.6v0.6c-0.1,0-0.2,0-0.3,0.1c-0.1,0-0.3,0-0.5,0c-0.4,0-0.6,0-0.8-0.1
			c-0.2-0.1-0.3-0.2-0.4-0.4c-0.1-0.2-0.1-0.4-0.1-0.7v-3.2H108v-0.7h0.9l0.2-1.5h0.7v1.5h1.2V120.5z"/>
		<path class="st19" d="M160.3,128.2c-1.7,0-3.1-0.3-4.2-1c-1.1-0.7-1.7-1.8-1.9-3.2l3-0.1c0.2,0.7,0.5,1.2,1,1.5
			c0.5,0.3,1.2,0.5,2,0.5c0.5,0,0.9-0.1,1.3-0.2c0.4-0.2,0.7-0.4,0.9-0.6c0.2-0.3,0.3-0.6,0.3-0.9c0-0.5-0.2-0.9-0.5-1.2
			c-0.3-0.3-0.9-0.5-1.6-0.6l-2.4-0.5c-1.1-0.2-2-0.7-2.7-1.3c-0.7-0.7-1-1.5-1-2.7c0-0.9,0.2-1.7,0.7-2.3c0.5-0.7,1.2-1.2,2-1.5
			c0.9-0.4,1.8-0.5,2.9-0.5c1.1,0,2,0.2,2.8,0.6c0.8,0.4,1.4,0.9,1.8,1.6c0.4,0.7,0.6,1.4,0.6,2.2l-2.9,0.1
			c-0.1-0.6-0.3-1.1-0.6-1.5c-0.3-0.4-0.9-0.6-1.7-0.6c-0.4,0-0.8,0-1.1,0.1c-0.3,0.1-0.6,0.2-0.8,0.4c-0.2,0.2-0.4,0.3-0.5,0.6
			c-0.1,0.2-0.2,0.5-0.2,0.7c0,0.4,0.1,0.8,0.4,1c0.3,0.2,0.8,0.5,1.6,0.7l2.3,0.6c1.3,0.3,2.3,0.8,2.8,1.6c0.6,0.8,0.9,1.7,0.9,2.8
			c0,0.8-0.2,1.6-0.7,2.2c-0.5,0.6-1.1,1.1-1.9,1.4C162.4,128,161.4,128.2,160.3,128.2z M159,111.5h2.5v2.6H159V111.5z M159,127.3
			h2.5v2.6H159V127.3z M172.8,128.2c-0.9,0-1.7-0.2-2.5-0.5s-1.4-0.8-1.9-1.5c-0.5-0.6-0.8-1.4-0.8-2.2h2.8c0.1,0.6,0.4,1,0.8,1.4
			c0.4,0.3,0.9,0.5,1.6,0.5c0.7,0,1.3-0.2,1.8-0.5c0.5-0.3,0.9-0.8,1.2-1.6c0.3-0.7,0.4-1.6,0.3-2.8c-0.2,0.4-0.4,0.7-0.8,0.9
			c-0.3,0.3-0.7,0.5-1.1,0.6c-0.4,0.1-0.9,0.2-1.5,0.2c-1,0-1.9-0.2-2.6-0.6c-0.8-0.4-1.3-0.9-1.8-1.6c-0.4-0.7-0.6-1.5-0.6-2.4
			c0-0.9,0.2-1.8,0.7-2.5c0.5-0.7,1.1-1.3,1.9-1.7c0.8-0.4,1.8-0.6,2.9-0.6c1.2,0,2.3,0.3,3.2,0.9c0.9,0.6,1.6,1.4,2.1,2.5
			c0.5,1.1,0.7,2.3,0.7,3.8c0,1.7-0.2,3.2-0.7,4.3c-0.5,1.1-1.2,2-2.1,2.6C175.2,127.9,174.1,128.2,172.8,128.2z M173.1,120.5
			c0.4,0,0.8-0.1,1.2-0.3c0.4-0.2,0.7-0.4,1-0.7c0.2-0.3,0.4-0.6,0.4-0.9c0-0.6-0.1-1.2-0.3-1.7c-0.2-0.5-0.5-0.8-0.9-1.1
			c-0.4-0.2-0.8-0.4-1.3-0.4c-0.5,0-0.9,0.1-1.2,0.3s-0.6,0.5-0.9,0.9c-0.2,0.4-0.3,0.8-0.3,1.3c0,0.8,0.2,1.3,0.7,1.8
			C171.8,120.3,172.4,120.5,173.1,120.5z M180.8,128v-1.4v-0.7c0-0.7,0.1-1.4,0.4-1.9c0.3-0.5,0.6-1,1.1-1.4
			c0.5-0.4,0.9-0.8,1.5-1.1c0.5-0.3,1.1-0.6,1.6-0.9c0.5-0.3,1-0.5,1.5-0.8c0.5-0.3,0.8-0.6,1.1-0.9c0.3-0.3,0.4-0.7,0.4-1.2
			c0-0.6-0.2-1.1-0.6-1.4c-0.4-0.4-0.9-0.6-1.6-0.6c-0.7,0-1.3,0.2-1.9,0.6s-0.8,1.1-0.9,1.9h-2.8c0-0.9,0.2-1.8,0.6-2.5
			c0.4-0.8,1-1.3,1.9-1.8c0.8-0.4,1.9-0.7,3.1-0.7c1.1,0,2,0.2,2.8,0.6c0.8,0.4,1.4,0.9,1.8,1.5c0.4,0.7,0.6,1.4,0.6,2.3
			c0,0.7-0.1,1.4-0.4,1.9c-0.3,0.5-0.6,1-1.1,1.4s-0.9,0.7-1.4,1c-0.5,0.3-1.1,0.5-1.6,0.8c-0.5,0.2-1,0.5-1.4,0.7
			c-0.4,0.2-0.8,0.5-1.1,0.8s-0.4,0.7-0.4,1.1v0.1h7.4v2.5H180.8z M198.7,113.3c1.7,0,3.1,0.6,4.1,1.9c1,1.3,1.5,3.1,1.5,5.5
			c0,2.4-0.5,4.2-1.5,5.5c-1,1.3-2.3,1.9-4.1,1.9c-1.8,0-3.1-0.6-4.1-1.9c-1-1.3-1.5-3.1-1.5-5.5c0-1.6,0.2-3,0.7-4.1
			c0.5-1.1,1.1-2,1.9-2.5C196.5,113.6,197.5,113.3,198.7,113.3z M198.7,125.8c0.9,0,1.5-0.4,1.9-1.2c0.4-0.8,0.6-2.1,0.6-3.9
			c0-1.8-0.2-3.2-0.6-4c-0.4-0.8-1-1.2-1.9-1.2c-0.9,0-1.5,0.4-1.9,1.2c-0.4,0.8-0.6,2.1-0.6,4c0,1.8,0.2,3.1,0.6,3.9
			C197.2,125.4,197.8,125.8,198.7,125.8z M212.3,113.5h2.9v8.8h2.2v2.4h-2.2v3.2h-2.8l0-3.2h-6.7v-2.4L212.3,113.5z M208.4,122.4h4
			v-5.3L208.4,122.4z"/>
	</g>
</g>
<path class="st20" d="M174,51.4v-2.1h-0.8v2.1H174z M120.9,67.4v-5h0c0.4,0.5,0.8,0.9,1.3,1.2c0.5,0.3,1.1,0.4,1.8,0.4
	c0.8,0,1.4-0.1,2-0.4c0.6-0.3,1.1-0.7,1.4-1.2c0.4-0.5,0.7-1.1,0.9-1.7c0.2-0.6,0.3-1.3,0.3-2c0-0.7-0.1-1.5-0.3-2.1
	c-0.2-0.7-0.5-1.3-0.9-1.8c-0.4-0.5-0.9-0.9-1.5-1.2c-0.6-0.3-1.3-0.5-2.1-0.5c-0.6,0-1.2,0.1-1.8,0.4c-0.5,0.3-1,0.7-1.3,1.2h0
	v-1.3h-2.7v14.1H120.9z M123.3,61.9c-0.5,0-0.8-0.1-1.2-0.3c-0.3-0.2-0.6-0.4-0.8-0.7c-0.2-0.3-0.3-0.7-0.4-1.1
	c-0.1-0.4-0.1-0.8-0.1-1.2c0-0.4,0-0.8,0.1-1.3c0.1-0.4,0.2-0.8,0.4-1.1c0.2-0.3,0.5-0.6,0.8-0.8c0.3-0.2,0.7-0.3,1.2-0.3
	c0.5,0,0.8,0.1,1.2,0.3c0.3,0.2,0.6,0.5,0.8,0.8c0.2,0.3,0.3,0.7,0.4,1.1c0.1,0.4,0.1,0.8,0.1,1.2s0,0.8-0.1,1.2
	c-0.1,0.4-0.2,0.8-0.4,1.1s-0.5,0.5-0.8,0.7C124.2,61.8,123.8,61.9,123.3,61.9z M135.3,63.8c-0.6,0.2-1.3,0.3-1.9,0.3
	c-0.5,0-1-0.1-1.4-0.2c-0.4-0.1-0.8-0.3-1.1-0.6c-0.3-0.3-0.6-0.6-0.8-1c-0.2-0.4-0.3-0.9-0.3-1.4c0-0.6,0.1-1.1,0.3-1.5
	c0.2-0.4,0.5-0.7,0.8-0.9c0.3-0.2,0.7-0.4,1.1-0.5c0.4-0.1,0.9-0.2,1.3-0.3c0.4-0.1,0.9-0.1,1.3-0.2c0.4,0,0.8-0.1,1.1-0.2
	c0.3-0.1,0.6-0.2,0.8-0.4s0.3-0.4,0.3-0.7c0-0.3-0.1-0.6-0.2-0.7s-0.2-0.3-0.4-0.4c-0.2-0.1-0.4-0.2-0.6-0.2c-0.2,0-0.5-0.1-0.7-0.1
	c-0.6,0-1,0.1-1.3,0.4c-0.3,0.2-0.5,0.6-0.6,1.2h-2.9c0-0.7,0.2-1.2,0.5-1.7c0.3-0.4,0.7-0.8,1.1-1.1c0.5-0.3,1-0.5,1.5-0.6
	c0.6-0.1,1.1-0.2,1.7-0.2c0.5,0,1.1,0,1.6,0.1s1,0.2,1.5,0.4c0.4,0.2,0.8,0.5,1.1,0.9c0.3,0.4,0.4,0.9,0.4,1.5v5.4
	c0,0.5,0,0.9,0.1,1.4c0.1,0.4,0.1,0.8,0.3,1h-2.9c-0.1-0.2-0.1-0.3-0.1-0.5c0-0.2-0.1-0.3-0.1-0.5C136.4,63.2,135.9,63.6,135.3,63.8
	z M134.4,62.1c-0.2,0-0.5,0-0.7-0.1c-0.2,0-0.4-0.1-0.6-0.2c-0.2-0.1-0.3-0.2-0.4-0.4c-0.1-0.2-0.1-0.4-0.1-0.6c0-0.3,0-0.5,0.1-0.7
	c0.1-0.2,0.2-0.3,0.4-0.4c0.2-0.1,0.3-0.2,0.5-0.3c0.2-0.1,0.4-0.1,0.6-0.2c0.2,0,0.5-0.1,0.7-0.1s0.4-0.1,0.7-0.1s0.4-0.1,0.6-0.2
	c0.2-0.1,0.3-0.1,0.5-0.3v1.1c0,0.2,0,0.4-0.1,0.6c0,0.3-0.1,0.5-0.3,0.8c-0.1,0.3-0.4,0.5-0.7,0.7C135.4,62,135,62.1,134.4,62.1z
	 M145.6,66.9c-0.6,0.4-1.3,0.5-2.3,0.5c-0.3,0-0.6,0-0.9,0c-0.3,0-0.6,0-0.9-0.1V65c0.3,0,0.5,0.1,0.8,0.1c0.3,0,0.6,0,0.8,0
	c0.4,0,0.7-0.2,0.8-0.4c0.2-0.3,0.3-0.5,0.3-0.8c0-0.2,0-0.4-0.1-0.6l-3.7-9.8h3.1l2.4,7.2h0l2.3-7.2h3l-4.4,11.7
	C146.5,65.9,146.1,66.5,145.6,66.9z M155.1,64c0.5,0,1-0.1,1.4-0.2c0.4-0.1,0.8-0.3,1.1-0.5c0.3-0.2,0.6-0.5,0.8-0.7
	c0.2-0.3,0.4-0.6,0.5-0.9h0v0.5c0,0.2,0,0.4,0.1,0.6c0,0.2,0.1,0.3,0.2,0.5c0.1,0.1,0.2,0.2,0.4,0.3c0.2,0.1,0.4,0.1,0.7,0.1
	c0.2,0,0.4,0,0.6-0.1V63c-0.2,0-0.4,0.1-0.6,0.1c-0.2,0-0.3,0-0.4-0.1c-0.1-0.1-0.2-0.2-0.2-0.3c0-0.1-0.1-0.3-0.1-0.4
	c0-0.1,0-0.3,0-0.4v-6c0-0.8-0.3-1.4-0.9-1.9c-0.6-0.5-1.5-0.7-2.7-0.7c-1.3,0-2.2,0.3-2.9,0.9c-0.7,0.6-1,1.4-1.1,2.6h0.8
	c0.1-0.9,0.4-1.6,0.9-2.1s1.3-0.7,2.3-0.7c0.5,0,1,0.1,1.3,0.2s0.7,0.3,0.9,0.4c0.2,0.2,0.4,0.4,0.5,0.6c0.1,0.2,0.2,0.5,0.2,0.8
	c0,0.4,0,0.7-0.1,0.9c0,0.2-0.1,0.4-0.3,0.6c-0.2,0.2-0.4,0.3-0.7,0.4c-0.3,0.1-0.8,0.2-1.3,0.2l-1.2,0.1c-0.4,0-0.9,0.1-1.3,0.2
	c-0.5,0.1-0.9,0.3-1.2,0.5c-0.4,0.2-0.7,0.5-0.9,0.9c-0.2,0.4-0.4,0.9-0.4,1.5c0,1,0.3,1.7,0.9,2.2C153.1,63.8,154,64,155.1,64z
	 M153.1,62.8c0.5,0.4,1.2,0.6,2,0.6c0.9,0,1.6-0.2,2.1-0.5c0.5-0.3,0.9-0.7,1.2-1.1c0.3-0.4,0.4-0.8,0.5-1.2
	c0.1-0.4,0.1-0.6,0.1-0.8v-1.9c-0.2,0.2-0.5,0.4-0.9,0.5c-0.4,0.1-0.8,0.1-1.3,0.2l-1.3,0.1c-0.4,0-0.8,0.1-1.1,0.2
	c-0.4,0.1-0.7,0.2-1,0.4c-0.3,0.2-0.5,0.4-0.7,0.7c-0.2,0.3-0.3,0.7-0.3,1.2C152.3,61.9,152.6,62.4,153.1,62.8z M163,67.5v-5.9h0
	c0.3,0.8,0.8,1.5,1.5,1.8c0.7,0.4,1.4,0.6,2.3,0.6c0.8,0,1.5-0.1,2.1-0.4c0.6-0.3,1.1-0.6,1.5-1.1c0.4-0.5,0.7-1,0.9-1.7
	c0.2-0.7,0.3-1.4,0.3-2.2c0-0.7-0.1-1.4-0.3-2.1c-0.2-0.7-0.5-1.2-0.9-1.7c-0.4-0.5-0.9-0.9-1.5-1.2c-0.6-0.3-1.3-0.4-2.1-0.4
	c-0.6,0-1.1,0.1-1.5,0.3c-0.4,0.2-0.8,0.4-1.1,0.7c-0.3,0.3-0.6,0.5-0.7,0.9c-0.2,0.3-0.3,0.6-0.4,0.8h0v-2.4h-0.8v14.1H163z
	 M165,63c0.5,0.3,1.1,0.4,1.8,0.4c0.7,0,1.3-0.1,1.7-0.4c0.5-0.3,0.9-0.6,1.2-1c0.3-0.4,0.6-0.9,0.7-1.5c0.2-0.6,0.2-1.2,0.2-1.8
	c0-0.6-0.1-1.2-0.2-1.7c-0.1-0.6-0.4-1.1-0.7-1.5c-0.3-0.5-0.7-0.8-1.2-1.1c-0.5-0.3-1.1-0.4-1.8-0.4c-0.7,0-1.3,0.1-1.8,0.4
	c-0.5,0.3-0.9,0.6-1.2,1.1c-0.3,0.4-0.5,1-0.7,1.5c-0.1,0.6-0.2,1.2-0.2,1.8c0,0.6,0.1,1.2,0.2,1.8c0.1,0.6,0.3,1.1,0.6,1.5
	C164.1,62.3,164.5,62.7,165,63z M173.3,53.4h0.8v10.4h-0.8V53.4z"/>
<ellipse transform="matrix(0.7071 -0.7071 0.7071 0.7071 -5.1514 85.8795)" class="st21" cx="101.1" cy="49.2" rx="1.9" ry="1.9"/>
<ellipse transform="matrix(0.7071 -0.7071 0.7071 0.7071 -7.0013 90.3455)" class="st21" cx="105.6" cy="53.6" rx="1.9" ry="1.9"/>
<ellipse transform="matrix(0.7071 -0.7071 0.7071 0.7071 -8.8511 94.8115)" class="st21" cx="110" cy="58.1" rx="1.9" ry="1.9"/>
<ellipse transform="matrix(0.7071 -0.7071 0.7071 0.7071 -9.6174 84.0296)" class="st21" cx="96.6" cy="53.6" rx="1.9" ry="1.9"/>
<ellipse transform="matrix(0.7071 -0.7071 0.7071 0.7071 -11.4673 88.4956)" class="st22" cx="101.1" cy="58.1" rx="1.9" ry="1.9"/>
<ellipse transform="matrix(0.7071 -0.7071 0.7071 0.7071 -13.3171 92.9616)" class="st22" cx="105.6" cy="62.6" rx="1.9" ry="1.9"/>
<circle class="st21" cx="92.2" cy="58.1" r="1.9"/>
<ellipse transform="matrix(0.7071 -0.7071 0.7071 0.7071 -15.9333 86.6457)" class="st22" cx="96.6" cy="62.6" rx="1.9" ry="1.9"/>
<ellipse transform="matrix(0.7071 -0.7071 0.7071 0.7071 -17.7831 91.1117)" class="st23" cx="101.1" cy="67" rx="1.9" ry="1.9"/>
<g>
	<path class="st0" d="M338.8,0.6H530c18.3,0,33.2,14.2,33.2,31.8v435.3c0,17.6-14.9,31.8-33.2,31.8H338.8
		c-18.3,0-33.2-14.2-33.2-31.8V32.4C305.6,14.8,320.4,0.6,338.8,0.6z"/>
</g>
<linearGradient id="SVGID_00000050627608500584117620000004162242464347535002_" gradientUnits="userSpaceOnUse" x1="434.3355" y1="502" x2="434.3355" y2="489.6761" gradientTransform="matrix(1 0 0 -1 0 502)">
	<stop  offset="0" style="stop-color:#454545"/>
	<stop  offset="0.2263" style="stop-color:#999999"/>
	<stop  offset="1" style="stop-color:#FFFFFF"/>
</linearGradient>
<path style="opacity:0.5956;fill-rule:evenodd;clip-rule:evenodd;fill:url(#SVGID_00000050627608500584117620000004162242464347535002_);fill-opacity:0.65;enable-background:new    ;" d="
	M530.7,0H337.9c-9,0.5-17.3,4.7-24.9,12.3c4.9-4.3,13.6-10,25.1-10c0,0,184.7,0,192.4,0c11.5,0,20.3,5.7,25.1,10
	C548.1,4.7,539.8,0.5,530.7,0z"/>
<linearGradient id="SVGID_00000047043359453802915660000011547670683908001680_" gradientUnits="userSpaceOnUse" x1="563.103" y1="253.1738" x2="553.642" y2="253.1738" gradientTransform="matrix(1 0 0 -1 0 502)">
	<stop  offset="0" style="stop-color:#FFFFFF;stop-opacity:1.000000e-02"/>
	<stop  offset="0.2222" style="stop-color:#BABABA"/>
	<stop  offset="0.5468" style="stop-color:#FFFFFF;stop-opacity:1.000000e-02"/>
	<stop  offset="1" style="stop-color:#FFFFFF;stop-opacity:1.000000e-02"/>
</linearGradient>
<path style="opacity:0.75;fill-rule:evenodd;clip-rule:evenodd;fill:url(#SVGID_00000047043359453802915660000011547670683908001680_);enable-background:new    ;" d="
	M558,462.7V35c0-11.5-4.2-15.7-6.7-18.4c-2.5-2.7-2.6-4.1,1-2.1c3.6,2.1,10.8,8,10.8,20.5v427.7c0,12.5-7.2,18.4-10.8,20.5
	c-3.6,2.1-3.5,0.7-1-2.1S558,474.1,558,462.7z"/>
<linearGradient id="SVGID_00000026853322544098447840000005771452581581778076_" gradientUnits="userSpaceOnUse" x1="305.568" y1="253.1738" x2="315.044" y2="253.1738" gradientTransform="matrix(1 0 0 -1 0 502)">
	<stop  offset="0" style="stop-color:#FFFFFF;stop-opacity:1.000000e-02"/>
	<stop  offset="0.2222" style="stop-color:#BABABA"/>
	<stop  offset="0.5468" style="stop-color:#FFFFFF;stop-opacity:1.000000e-02"/>
	<stop  offset="1" style="stop-color:#FFFFFF;stop-opacity:1.000000e-02"/>
</linearGradient>
<path style="opacity:0.75;fill-rule:evenodd;clip-rule:evenodd;fill:url(#SVGID_00000026853322544098447840000005771452581581778076_);enable-background:new    ;" d="
	M310.7,462.7V35c0-11.5,4.2-15.7,6.7-18.4c2.5-2.7,2.6-4.1-1-2.1c-3.6,2.1-10.8,8-10.8,20.5v427.7c0,12.5,7.2,18.4,10.8,20.5
	c3.6,2.1,3.5,0.7,1-2.1S310.7,474.1,310.7,462.7z"/>
<path class="st4" d="M303,103.6c0-1.1,0.9-2,2-2h1c1.1,0,2,0.9,2,2v60.3c0,1.1-0.9,2-2,2h-1c-1.1,0-2-0.9-2-2V103.6z"/>
<path class="st4" d="M560.5,156c0-1.1,0.9-2,2-2h1c1.1,0,2,0.9,2,2V199c0,1.1-0.9,2-2,2h-1c-1.1,0-2-0.9-2-2V156z"/>
<path class="st27" d="M411.7,12.4h-74.4c-11.1,0-19.2,7.6-19.2,17.4v422.4c0,12.9,12.5,24.3,26.6,24.3H524
	c13.6,0,26.6-11.5,26.6-24.3V31c0-11.8-8.8-18.5-19.2-18.6h-75.6c-0.3,0-5.5,2.2-7.7,7.6c-2.2,5.4-6.6,9.7-11.4,9.7h-5.6
	c-2.3,0-8.3-2.2-11.4-9.7C416.7,12.6,412,12.5,411.7,12.4z"/>
<defs>
	<filter id="Adobe_OpacityMaskFilter_00000052105463461781791570000001582443241310697356_" filterUnits="userSpaceOnUse">
		<feColorMatrix  type="matrix" values="1 0 0 0 0  0 1 0 0 0  0 0 1 0 0  0 0 0 1 0"/>
	</filter>
</defs>
<mask maskUnits="userSpaceOnUse" id="mask1_3805_2_00000056398443098071236230000002736045859507759023_">
	
		<path style="fill-rule:evenodd;clip-rule:evenodd;fill:#FFFFFF;filter:url(#Adobe_OpacityMaskFilter_00000052105463461781791570000001582443241310697356_);" d="
		M411.7,12.4h-74.4c-11.1,0-19.2,7.6-19.2,17.4v422.4c0,12.9,12.5,24.3,26.6,24.3H524c13.6,0,26.6-11.5,26.6-24.3V31
		c0-11.8-8.8-18.5-19.2-18.6h-75.6c-0.3,0-5.5,2.2-7.7,7.6c-2.2,5.4-6.6,9.7-11.4,9.7h-5.6c-2.3,0-8.3-2.2-11.4-9.7
		C416.7,12.6,412,12.5,411.7,12.4z"/>
</mask>
<g class="st29">
</g>
<g>
	<path class="st8" d="M351,142h166c2.8,0,5,2.2,5,5v181c0,2.8-2.2,5-5,5H351c-2.8,0-5-2.2-5-5V147C346,144.2,348.2,142,351,142z"/>
</g>
<g>
	<defs>
		<rect id="SVGID_00000104698907089447977470000012171884915574777986_" x="360" y="178" width="149" height="122"/>
	</defs>
	<clipPath id="SVGID_00000000908706341820442690000000219972296060423083_">
		<use xlink:href="#SVGID_00000104698907089447977470000012171884915574777986_"  style="overflow:visible;"/>
	</clipPath>
	<g style="clip-path:url(#SVGID_00000000908706341820442690000000219972296060423083_);">
		<path class="st11" d="M379.6,260v-9.4h3.2c0.7,0,1.3,0.1,1.8,0.3c0.5,0.2,0.9,0.6,1.2,1c0.3,0.4,0.5,1,0.5,1.6
			c0,0.6-0.1,1.2-0.4,1.6c-0.3,0.4-0.7,0.8-1.2,1c-0.5,0.2-1.1,0.3-1.7,0.3h-2.1v3.5H379.6z M380.8,255.5h2.1c0.6,0,1.2-0.2,1.6-0.5
			c0.4-0.4,0.6-0.8,0.6-1.5c0-0.6-0.2-1.1-0.6-1.4c-0.4-0.3-1-0.5-1.6-0.5h-2V255.5z M389.3,260.1c-0.4,0-0.8-0.1-1.2-0.2
			c-0.3-0.2-0.6-0.4-0.8-0.7c-0.2-0.3-0.3-0.6-0.3-1.1c0-0.7,0.3-1.3,0.8-1.7c0.5-0.4,1.4-0.6,2.5-0.6l1.2,0v-0.5
			c0-0.4-0.1-0.7-0.4-1c-0.2-0.2-0.6-0.4-1.2-0.4c-0.4,0-0.7,0.1-1,0.3c-0.3,0.2-0.5,0.5-0.6,0.9h-1.1c0-0.4,0.1-0.8,0.4-1.1
			c0.2-0.3,0.5-0.5,0.9-0.7c0.4-0.2,0.9-0.2,1.4-0.2c0.6,0,1.1,0.1,1.5,0.2c0.4,0.2,0.7,0.4,0.9,0.7c0.2,0.3,0.3,0.7,0.3,1.2v4.7h-1
			l-0.1-1.3c-0.3,0.5-0.6,0.9-1,1.1C390.2,260,389.7,260.1,389.3,260.1z M389.6,259.3c0.2,0,0.4,0,0.7-0.1c0.2-0.1,0.4-0.2,0.6-0.3
			c0.2-0.1,0.3-0.3,0.4-0.5c0.1-0.2,0.2-0.4,0.2-0.5v-1.2l-1,0c-0.5,0-0.9,0.1-1.3,0.2c-0.3,0.1-0.6,0.2-0.8,0.4
			c-0.2,0.2-0.3,0.5-0.3,0.8c0,0.4,0.1,0.7,0.4,0.9C388.9,259.2,389.2,259.3,389.6,259.3z M395.1,262.1c-0.4,0-0.7,0-0.8-0.1
			c-0.1-0.1-0.2-0.1-0.2-0.1v-0.8l0.7,0c0.3,0,0.5,0,0.6-0.1c0.2,0,0.3-0.1,0.4-0.2c0.1-0.1,0.2-0.2,0.2-0.2
			c0.1-0.1,0.1-0.2,0.1-0.3l0.2-0.6l-2.6-6.6h1.2l2,5.2l2-5.2h1.2l-2.8,7.2c-0.2,0.4-0.4,0.8-0.6,1c-0.2,0.2-0.5,0.4-0.7,0.5
			C395.7,262.1,395.4,262.1,395.1,262.1z M401.3,260v-6.7h1.2v1c0.2-0.3,0.4-0.6,0.8-0.8c0.3-0.2,0.7-0.3,1.3-0.3
			c0.2,0,0.5,0,0.7,0.1c0.3,0.1,0.5,0.2,0.7,0.4s0.4,0.4,0.5,0.6c0.2-0.3,0.5-0.6,0.8-0.8c0.4-0.2,0.8-0.3,1.2-0.3
			c0.2,0,0.5,0,0.7,0.1c0.3,0.1,0.5,0.2,0.7,0.4c0.2,0.2,0.4,0.4,0.5,0.7c0.1,0.3,0.2,0.7,0.2,1.2v4.4h-1.2v-4.3
			c0-0.4-0.1-0.7-0.2-0.9c-0.1-0.2-0.3-0.4-0.5-0.5c-0.2-0.1-0.4-0.1-0.7-0.1c-0.2,0-0.4,0-0.7,0.1s-0.4,0.2-0.6,0.4
			c-0.2,0.2-0.2,0.5-0.2,0.8v4.5h-1.2v-4.6c0-0.3-0.1-0.5-0.2-0.7c-0.1-0.2-0.3-0.3-0.5-0.4c-0.2-0.1-0.4-0.1-0.6-0.1
			c-0.2,0-0.5,0-0.7,0.1c-0.2,0.1-0.4,0.2-0.6,0.4c-0.2,0.2-0.2,0.5-0.2,0.8v4.5H401.3z M413.3,256.9c0,0.4,0.1,0.8,0.2,1.2
			c0.1,0.3,0.4,0.6,0.6,0.8c0.3,0.2,0.7,0.3,1.1,0.3c0.4,0,0.8-0.1,1.1-0.3c0.3-0.2,0.5-0.5,0.6-0.9h1.1c-0.1,0.5-0.3,0.8-0.5,1.2
			c-0.3,0.3-0.6,0.5-1,0.7c-0.4,0.2-0.8,0.2-1.2,0.2c-0.6,0-1.2-0.1-1.7-0.4c-0.5-0.3-0.8-0.7-1.1-1.2c-0.3-0.5-0.4-1.1-0.4-1.8
			c0-0.7,0.1-1.3,0.4-1.9s0.6-0.9,1.1-1.2c0.5-0.3,1-0.4,1.7-0.4c0.6,0,1.2,0.1,1.6,0.4c0.4,0.3,0.8,0.7,1,1.2
			c0.2,0.5,0.3,1.1,0.3,1.8v0.4H413.3z M413.3,256.1h3.7c0-0.4-0.1-0.7-0.2-1c-0.1-0.3-0.3-0.6-0.6-0.7c-0.3-0.2-0.6-0.3-1-0.3
			c-0.4,0-0.8,0.1-1,0.3c-0.3,0.2-0.5,0.5-0.6,0.8C413.3,255.5,413.3,255.8,413.3,256.1z M419.6,260v-6.7h1.2v1
			c0.1-0.2,0.3-0.4,0.4-0.5c0.2-0.2,0.4-0.3,0.7-0.4c0.3-0.1,0.6-0.1,1-0.1c0.4,0,0.8,0.1,1.2,0.3c0.4,0.2,0.6,0.4,0.9,0.8
			c0.2,0.4,0.3,0.8,0.3,1.4v4.4H424v-4.3c0-0.5-0.1-0.9-0.4-1.2c-0.3-0.3-0.6-0.4-1.1-0.4c-0.3,0-0.6,0.1-0.9,0.1
			c-0.3,0.1-0.5,0.2-0.6,0.4c-0.2,0.2-0.2,0.4-0.2,0.7v4.5H419.6z M430.1,254.2h-1.5v4.2c0,0.2,0,0.4,0.1,0.5
			c0.1,0.1,0.1,0.2,0.3,0.2c0.1,0,0.3,0,0.5,0h0.7v0.8c-0.1,0-0.2,0.1-0.4,0.1c-0.2,0-0.4,0-0.6,0c-0.5,0-0.8-0.1-1.1-0.2
			c-0.3-0.1-0.4-0.3-0.5-0.6c-0.1-0.2-0.1-0.6-0.1-0.9v-4.2h-1.1v-0.9h1.1l0.3-2h0.9v2h1.5V254.2z M437.2,260.1
			c-0.6,0-1.2-0.1-1.6-0.4c-0.5-0.3-0.8-0.7-1.1-1.2c-0.3-0.5-0.4-1.1-0.4-1.9c0-0.7,0.1-1.3,0.4-1.8c0.2-0.5,0.6-0.9,1-1.2
			c0.5-0.3,1-0.4,1.7-0.4c0.6,0,1.2,0.1,1.6,0.4c0.5,0.3,0.8,0.7,1.1,1.2c0.3,0.5,0.4,1.2,0.4,1.9c0,0.7-0.1,1.3-0.4,1.8
			c-0.2,0.5-0.6,0.9-1,1.2C438.4,260,437.8,260.1,437.2,260.1z M437.2,259.2c0.4,0,0.7-0.1,1-0.3c0.3-0.2,0.5-0.5,0.6-0.9
			c0.1-0.4,0.2-0.8,0.2-1.4c0-0.5-0.1-0.9-0.2-1.3c-0.1-0.4-0.3-0.7-0.6-0.9c-0.3-0.2-0.6-0.3-1.1-0.3c-0.4,0-0.8,0.1-1,0.3
			c-0.3,0.2-0.5,0.5-0.6,0.9c-0.1,0.4-0.2,0.8-0.2,1.4c0,0.5,0.1,0.9,0.2,1.3c0.1,0.4,0.3,0.7,0.6,0.9
			C436.3,259.1,436.7,259.2,437.2,259.2z M445.2,253.3v0.9h-1.6v5.8h-1.2v-5.8H441v-0.9h1.4v-1c0-0.5,0.1-0.9,0.4-1.2
			c0.3-0.3,0.7-0.4,1.2-0.4h1.3l0,0.9h-1c-0.3,0-0.5,0.1-0.6,0.2c-0.1,0.1-0.1,0.4-0.1,0.7v0.9H445.2z M453.1,260.1
			c-1.1,0-2-0.2-2.7-0.7c-0.7-0.5-1.1-1.2-1.2-2.1l2,0c0.1,0.4,0.3,0.8,0.7,1c0.3,0.2,0.8,0.3,1.3,0.3c0.3,0,0.6,0,0.8-0.1
			c0.2-0.1,0.4-0.2,0.6-0.4c0.1-0.2,0.2-0.4,0.2-0.6c0-0.3-0.1-0.6-0.3-0.8c-0.2-0.2-0.6-0.3-1-0.4l-1.5-0.3
			c-0.7-0.1-1.3-0.4-1.7-0.9c-0.4-0.4-0.6-1-0.7-1.7c0-0.6,0.2-1.1,0.5-1.5c0.3-0.4,0.8-0.8,1.3-1c0.6-0.2,1.2-0.4,1.9-0.4
			c0.7,0,1.3,0.1,1.8,0.4c0.5,0.3,0.9,0.6,1.2,1c0.3,0.4,0.4,0.9,0.4,1.4l-1.9,0c-0.1-0.4-0.2-0.7-0.4-1c-0.2-0.2-0.6-0.4-1.1-0.4
			c-0.3,0-0.5,0-0.7,0.1c-0.2,0.1-0.4,0.1-0.5,0.2c-0.1,0.1-0.3,0.2-0.3,0.4c-0.1,0.1-0.1,0.3-0.1,0.5c0,0.3,0.1,0.5,0.3,0.6
			c0.2,0.2,0.5,0.3,1,0.4l1.5,0.4c0.9,0.2,1.5,0.6,1.8,1c0.4,0.5,0.6,1.1,0.6,1.8c0,0.5-0.1,1-0.4,1.4c-0.3,0.4-0.7,0.7-1.3,0.9
			C454.5,260,453.8,260.1,453.1,260.1z M452.3,249.3h1.6v1.7h-1.6V249.3z M452.3,259.6h1.6v1.7h-1.6V259.6z M461.3,260.1
			c-0.6,0-1.1-0.1-1.6-0.3c-0.5-0.2-0.9-0.5-1.2-0.9c-0.3-0.4-0.5-0.9-0.5-1.4h1.8c0.1,0.4,0.3,0.7,0.5,0.9c0.3,0.2,0.6,0.3,1,0.3
			c0.5,0,0.8-0.1,1.2-0.3c0.3-0.2,0.6-0.5,0.8-1c0.2-0.5,0.2-1.1,0.2-1.8c-0.1,0.2-0.3,0.4-0.5,0.6c-0.2,0.2-0.5,0.3-0.7,0.4
			c-0.3,0.1-0.6,0.1-1,0.1c-0.6,0-1.2-0.1-1.7-0.4c-0.5-0.2-0.9-0.6-1.2-1c-0.3-0.4-0.4-1-0.4-1.6c0-0.6,0.1-1.2,0.4-1.6
			c0.3-0.5,0.7-0.9,1.2-1.1c0.5-0.3,1.1-0.4,1.9-0.4c0.8,0,1.5,0.2,2.1,0.6c0.6,0.4,1,0.9,1.3,1.6c0.3,0.7,0.5,1.5,0.5,2.5
			c0,1.1-0.2,2.1-0.5,2.8c-0.3,0.7-0.8,1.3-1.4,1.7C462.8,260,462.1,260.1,461.3,260.1z M461.5,255.1c0.3,0,0.5-0.1,0.8-0.2
			c0.3-0.1,0.5-0.3,0.6-0.5c0.2-0.2,0.2-0.4,0.2-0.6c0-0.4-0.1-0.8-0.2-1.1c-0.1-0.3-0.3-0.5-0.6-0.7c-0.2-0.2-0.5-0.2-0.9-0.2
			c-0.3,0-0.6,0.1-0.8,0.2c-0.2,0.1-0.4,0.3-0.6,0.6c-0.1,0.3-0.2,0.5-0.2,0.9c0,0.5,0.1,0.9,0.4,1.1
			C460.6,255,461,255.1,461.5,255.1z M466.5,260v-0.9v-0.5c0-0.5,0.1-0.9,0.3-1.2c0.2-0.4,0.4-0.7,0.7-0.9c0.3-0.3,0.6-0.5,1-0.7
			c0.4-0.2,0.7-0.4,1.1-0.6s0.7-0.3,1-0.5c0.3-0.2,0.5-0.4,0.7-0.6c0.2-0.2,0.3-0.5,0.3-0.8c0-0.4-0.1-0.7-0.4-0.9
			c-0.3-0.2-0.6-0.4-1.1-0.4c-0.5,0-0.9,0.1-1.2,0.4c-0.3,0.3-0.5,0.7-0.6,1.2h-1.8c0-0.6,0.1-1.1,0.4-1.6c0.3-0.5,0.7-0.9,1.2-1.2
			c0.5-0.3,1.2-0.4,2-0.4c0.7,0,1.3,0.1,1.8,0.4c0.5,0.2,0.9,0.6,1.2,1c0.3,0.4,0.4,0.9,0.4,1.5c0,0.5-0.1,0.9-0.3,1.2
			c-0.2,0.3-0.4,0.6-0.7,0.9c-0.3,0.2-0.6,0.5-0.9,0.6c-0.3,0.2-0.7,0.4-1,0.5c-0.3,0.2-0.7,0.3-0.9,0.5c-0.3,0.2-0.5,0.3-0.7,0.5
			c-0.2,0.2-0.3,0.4-0.3,0.7v0.1h4.8v1.6H466.5z M478.1,250.5c1.1,0,2,0.4,2.6,1.3c0.6,0.8,1,2,1,3.6c0,1.6-0.3,2.7-1,3.6
			c-0.6,0.8-1.5,1.2-2.7,1.2c-1.1,0-2-0.4-2.7-1.2c-0.6-0.8-1-2-1-3.6c0-1,0.1-1.9,0.4-2.6c0.3-0.7,0.7-1.3,1.3-1.6
			C476.7,250.7,477.3,250.5,478.1,250.5z M478.1,258.6c0.6,0,1-0.2,1.2-0.7c0.3-0.5,0.4-1.3,0.4-2.5c0-1.2-0.1-2.1-0.4-2.6
			c-0.3-0.5-0.7-0.8-1.2-0.8c-0.6,0-1,0.3-1.2,0.8c-0.3,0.5-0.4,1.4-0.4,2.6c0,1.2,0.1,2,0.4,2.5
			C477.1,258.3,477.5,258.6,478.1,258.6z M487,250.6h1.9v5.7h1.4v1.6h-1.4v2.1H487l0-2.1h-4.3v-1.6L487,250.6z M484.4,256.3h2.6
			v-3.4L484.4,256.3z M386.3,271.3v6.7h-1.2v-6.7H386.3z M386.3,268.6v1.2h-1.2v-1.2H386.3z M390.7,278.1c-0.5,0-0.9-0.1-1.3-0.2
			c-0.4-0.1-0.7-0.4-1-0.7c-0.3-0.3-0.4-0.7-0.5-1.2h1.1c0.1,0.3,0.2,0.5,0.3,0.7c0.2,0.2,0.4,0.3,0.6,0.4c0.2,0.1,0.5,0.1,0.8,0.1
			c0.5,0,0.8-0.1,1.1-0.3c0.3-0.2,0.4-0.4,0.4-0.8c0-0.2-0.1-0.4-0.2-0.6c-0.1-0.2-0.4-0.3-0.7-0.3l-1.4-0.3c-0.5-0.1-1-0.3-1.3-0.6
			c-0.3-0.3-0.5-0.7-0.5-1.2c0-0.4,0.1-0.7,0.3-1c0.2-0.3,0.5-0.5,0.9-0.7s0.9-0.3,1.4-0.3c0.7,0,1.3,0.2,1.8,0.5
			c0.5,0.3,0.7,0.8,0.7,1.4h-1.1c0-0.3-0.2-0.6-0.4-0.8c-0.2-0.2-0.6-0.3-1-0.3c-0.4,0-0.8,0.1-1,0.3c-0.3,0.2-0.4,0.4-0.4,0.8
			c0,0.2,0.1,0.4,0.3,0.6c0.2,0.1,0.5,0.2,0.8,0.3l1.3,0.3c0.3,0.1,0.6,0.2,0.8,0.3c0.2,0.1,0.4,0.3,0.5,0.4
			c0.1,0.2,0.2,0.3,0.3,0.5c0.1,0.2,0.1,0.3,0.1,0.5c0,0.4-0.1,0.8-0.3,1.1c-0.2,0.3-0.5,0.5-0.9,0.7
			C391.7,278,391.3,278.1,390.7,278.1z M400.2,271.1c0.5,0,0.9,0.1,1.3,0.3c0.4,0.2,0.7,0.4,0.9,0.8c0.2,0.3,0.4,0.7,0.5,1.2h-1.1
			c0-0.2-0.1-0.4-0.3-0.6c-0.1-0.2-0.3-0.4-0.6-0.5c-0.2-0.1-0.5-0.2-0.8-0.2c-0.6,0-1,0.2-1.4,0.6c-0.4,0.4-0.5,1.1-0.5,1.9
			c0,0.8,0.2,1.4,0.5,1.9c0.3,0.5,0.8,0.7,1.5,0.7c0.3,0,0.6-0.1,0.8-0.2c0.2-0.1,0.4-0.3,0.6-0.5c0.1-0.2,0.2-0.4,0.3-0.6h1
			c-0.1,0.5-0.2,0.8-0.5,1.2c-0.2,0.3-0.6,0.6-0.9,0.8c-0.4,0.2-0.8,0.3-1.3,0.3c-0.6,0-1.1-0.1-1.6-0.4c-0.5-0.3-0.8-0.7-1.1-1.2
			c-0.3-0.5-0.4-1.1-0.4-1.9c0-0.7,0.1-1.3,0.4-1.8c0.2-0.5,0.6-0.9,1.1-1.2C399,271.3,399.6,271.1,400.2,271.1z M407.1,278.1
			c-0.6,0-1.2-0.1-1.6-0.4c-0.5-0.3-0.8-0.7-1.1-1.2c-0.3-0.5-0.4-1.1-0.4-1.9c0-0.7,0.1-1.3,0.4-1.8c0.2-0.5,0.6-0.9,1-1.2
			c0.5-0.3,1-0.4,1.7-0.4c0.6,0,1.2,0.1,1.6,0.4c0.5,0.3,0.8,0.7,1.1,1.2c0.3,0.5,0.4,1.2,0.4,1.9c0,0.7-0.1,1.3-0.4,1.8
			c-0.2,0.5-0.6,0.9-1,1.2C408.4,278,407.8,278.1,407.1,278.1z M407.1,277.2c0.4,0,0.7-0.1,1-0.3c0.3-0.2,0.5-0.5,0.6-0.9
			c0.1-0.4,0.2-0.8,0.2-1.4c0-0.5-0.1-0.9-0.2-1.3c-0.1-0.4-0.3-0.7-0.6-0.9c-0.3-0.2-0.6-0.3-1.1-0.3c-0.4,0-0.8,0.1-1,0.3
			c-0.3,0.2-0.5,0.5-0.6,0.9c-0.1,0.4-0.2,0.8-0.2,1.4c0,0.5,0.1,0.9,0.2,1.3c0.1,0.4,0.3,0.7,0.6,0.9
			C406.3,277.1,406.7,277.2,407.1,277.2z M411.7,278v-6.7h1.2v1c0.2-0.3,0.4-0.6,0.8-0.8c0.3-0.2,0.7-0.3,1.3-0.3
			c0.2,0,0.5,0,0.7,0.1c0.3,0.1,0.5,0.2,0.7,0.4c0.2,0.2,0.4,0.4,0.5,0.6c0.2-0.3,0.5-0.6,0.8-0.8c0.4-0.2,0.8-0.3,1.2-0.3
			c0.2,0,0.5,0,0.7,0.1c0.3,0.1,0.5,0.2,0.7,0.4c0.2,0.2,0.4,0.4,0.5,0.7c0.1,0.3,0.2,0.7,0.2,1.2v4.4h-1.2v-4.3
			c0-0.4-0.1-0.7-0.2-0.9c-0.1-0.2-0.3-0.4-0.5-0.5c-0.2-0.1-0.4-0.1-0.7-0.1c-0.2,0-0.4,0-0.7,0.1c-0.2,0.1-0.4,0.2-0.6,0.4
			c-0.2,0.2-0.2,0.5-0.2,0.8v4.5h-1.2v-4.6c0-0.3-0.1-0.5-0.2-0.7c-0.1-0.2-0.3-0.3-0.5-0.4c-0.2-0.1-0.4-0.1-0.6-0.1
			c-0.2,0-0.5,0-0.7,0.1c-0.2,0.1-0.4,0.2-0.6,0.4c-0.2,0.2-0.2,0.5-0.2,0.8v4.5H411.7z M422.8,280.1v-8.8h1.2l0,1.2
			c0.1-0.1,0.2-0.3,0.3-0.4c0.1-0.2,0.3-0.3,0.5-0.4c0.2-0.1,0.4-0.2,0.6-0.3c0.2-0.1,0.5-0.1,0.8-0.1c0.5,0,1,0.1,1.4,0.4
			c0.4,0.2,0.7,0.6,1,1.1c0.2,0.5,0.3,1.1,0.3,1.9c0,0.8-0.1,1.4-0.3,2c-0.2,0.5-0.5,0.9-1,1.2c-0.4,0.3-0.9,0.4-1.5,0.4
			c-0.3,0-0.6,0-0.8-0.1c-0.2-0.1-0.4-0.2-0.6-0.3c-0.2-0.1-0.3-0.3-0.4-0.4c-0.1-0.2-0.2-0.3-0.3-0.4v3.3H422.8z M425.9,277.2
			c0.6,0,1-0.2,1.4-0.6c0.4-0.4,0.5-1.1,0.5-2c0-0.8-0.2-1.4-0.5-1.8c-0.3-0.5-0.8-0.7-1.4-0.7c-0.6,0-1.1,0.2-1.4,0.7
			c-0.3,0.5-0.5,1.1-0.5,1.8c0,0.5,0.1,0.9,0.2,1.3c0.1,0.4,0.4,0.7,0.6,0.9C425.1,277.1,425.5,277.2,425.9,277.2z M432.1,278.1
			c-0.4,0-0.7,0-0.9-0.1c-0.2-0.1-0.4-0.2-0.5-0.4c-0.1-0.2-0.2-0.4-0.2-0.6c0-0.2-0.1-0.4-0.1-0.7v-7.9h1.2v7.8
			c0,0.3,0.1,0.6,0.2,0.8c0.1,0.2,0.3,0.3,0.6,0.3l0.4,0v0.8c-0.1,0-0.2,0.1-0.3,0.1C432.3,278.1,432.2,278.1,432.1,278.1z
			 M434.9,274.9c0,0.4,0.1,0.8,0.2,1.2c0.1,0.3,0.4,0.6,0.6,0.8c0.3,0.2,0.7,0.3,1.1,0.3c0.4,0,0.8-0.1,1.1-0.3
			c0.3-0.2,0.5-0.5,0.6-0.9h1.1c-0.1,0.5-0.3,0.8-0.5,1.2c-0.3,0.3-0.6,0.5-1,0.7c-0.4,0.2-0.8,0.2-1.2,0.2c-0.6,0-1.2-0.1-1.7-0.4
			c-0.5-0.3-0.9-0.7-1.1-1.2c-0.3-0.5-0.4-1.1-0.4-1.8c0-0.7,0.1-1.3,0.4-1.9c0.2-0.5,0.6-0.9,1.1-1.2c0.5-0.3,1-0.4,1.7-0.4
			c0.6,0,1.2,0.1,1.6,0.4c0.4,0.3,0.8,0.7,1,1.2c0.2,0.5,0.3,1.1,0.3,1.8v0.4H434.9z M435,274.1h3.7c0-0.4-0.1-0.7-0.2-1
			c-0.1-0.3-0.3-0.6-0.6-0.7c-0.3-0.2-0.6-0.3-1-0.3c-0.4,0-0.8,0.1-1,0.3c-0.3,0.2-0.5,0.5-0.6,0.8
			C435,273.5,434.9,273.8,435,274.1z M444.5,272.2H443v4.2c0,0.2,0,0.4,0.1,0.5c0.1,0.1,0.1,0.2,0.3,0.2c0.1,0,0.3,0,0.5,0h0.7v0.8
			c-0.1,0-0.2,0.1-0.4,0.1c-0.2,0-0.4,0-0.6,0c-0.5,0-0.8-0.1-1.1-0.2c-0.3-0.1-0.4-0.3-0.5-0.6c-0.1-0.2-0.1-0.6-0.1-0.9v-4.2h-1.1
			v-0.9h1.1l0.3-2h0.9v2h1.5V272.2z M446.8,274.9c0,0.4,0.1,0.8,0.2,1.2c0.1,0.3,0.4,0.6,0.6,0.8c0.3,0.2,0.7,0.3,1.1,0.3
			c0.4,0,0.8-0.1,1.1-0.3c0.3-0.2,0.5-0.5,0.6-0.9h1.1c-0.1,0.5-0.3,0.8-0.5,1.2c-0.3,0.3-0.6,0.5-1,0.7c-0.4,0.2-0.8,0.2-1.2,0.2
			c-0.6,0-1.2-0.1-1.7-0.4c-0.5-0.3-0.8-0.7-1.1-1.2c-0.3-0.5-0.4-1.1-0.4-1.8c0-0.7,0.1-1.3,0.4-1.9s0.6-0.9,1.1-1.2
			c0.5-0.3,1-0.4,1.7-0.4c0.6,0,1.2,0.1,1.6,0.4c0.4,0.3,0.8,0.7,1,1.2c0.2,0.5,0.3,1.1,0.3,1.8v0.4H446.8z M446.8,274.1h3.7
			c0-0.4-0.1-0.7-0.2-1c-0.1-0.3-0.3-0.6-0.6-0.7c-0.3-0.2-0.6-0.3-1-0.3c-0.4,0-0.8,0.1-1,0.3c-0.3,0.2-0.5,0.5-0.6,0.8
			C446.9,273.5,446.8,273.8,446.8,274.1z M455.6,278.1c-0.9,0-1.6-0.3-2.1-0.9c-0.5-0.6-0.8-1.5-0.8-2.6c0-0.7,0.1-1.3,0.3-1.8
			c0.2-0.5,0.5-0.9,0.9-1.2c0.4-0.3,0.9-0.4,1.5-0.4c0.3,0,0.6,0,0.9,0.1c0.3,0.1,0.5,0.2,0.7,0.3c0.2,0.1,0.3,0.3,0.4,0.4
			c0.1,0.1,0.2,0.3,0.3,0.4v-4h1.2v9.7H458l-0.1-1.4c0,0.1-0.1,0.3-0.2,0.5c-0.1,0.2-0.2,0.3-0.4,0.5c-0.2,0.2-0.4,0.3-0.7,0.4
			C456.3,278.1,456,278.1,455.6,278.1z M455.8,277.2c0.7,0,1.2-0.2,1.5-0.6c0.3-0.4,0.4-1.1,0.4-2c0-0.5-0.1-1-0.2-1.3
			c-0.1-0.4-0.3-0.6-0.6-0.8c-0.3-0.2-0.6-0.3-1.1-0.3c-0.6,0-1,0.2-1.4,0.6c-0.3,0.4-0.5,1-0.5,1.9c0,0.8,0.2,1.5,0.5,2
			C454.8,277,455.2,277.2,455.8,277.2z M465.6,278.1c-0.4,0-0.8-0.1-1.2-0.2c-0.3-0.2-0.6-0.4-0.8-0.7c-0.2-0.3-0.3-0.6-0.3-1.1
			c0-0.7,0.3-1.3,0.8-1.7c0.5-0.4,1.4-0.6,2.5-0.6l1.2,0v-0.5c0-0.4-0.1-0.7-0.4-1c-0.2-0.2-0.6-0.4-1.2-0.4c-0.4,0-0.7,0.1-1,0.3
			c-0.3,0.2-0.5,0.5-0.6,0.9h-1.1c0-0.4,0.2-0.8,0.4-1.1c0.2-0.3,0.5-0.5,0.9-0.7c0.4-0.2,0.9-0.2,1.4-0.2c0.6,0,1.1,0.1,1.5,0.2
			c0.4,0.2,0.7,0.4,0.9,0.7c0.2,0.3,0.3,0.7,0.3,1.2v4.7h-1l-0.1-1.3c-0.3,0.5-0.6,0.9-1,1.1C466.5,278,466.1,278.1,465.6,278.1z
			 M465.9,277.3c0.2,0,0.4,0,0.7-0.1c0.2-0.1,0.4-0.2,0.6-0.3c0.2-0.1,0.3-0.3,0.4-0.5c0.1-0.2,0.2-0.4,0.2-0.5v-1.2l-1,0
			c-0.5,0-0.9,0.1-1.3,0.2c-0.3,0.1-0.6,0.2-0.8,0.4c-0.2,0.2-0.3,0.5-0.3,0.8c0,0.4,0.1,0.7,0.4,0.9
			C465.2,277.2,465.5,277.3,465.9,277.3z M470.9,278v-6.7h1.2v1c0.1-0.2,0.3-0.4,0.4-0.5c0.2-0.2,0.4-0.3,0.7-0.4
			c0.3-0.1,0.6-0.1,1-0.1c0.4,0,0.8,0.1,1.2,0.3c0.4,0.2,0.6,0.4,0.9,0.8c0.2,0.4,0.3,0.8,0.3,1.4v4.4h-1.2v-4.3
			c0-0.5-0.1-0.9-0.4-1.2c-0.3-0.3-0.6-0.4-1.1-0.4c-0.3,0-0.6,0.1-0.9,0.1c-0.3,0.1-0.5,0.2-0.6,0.4c-0.2,0.2-0.2,0.4-0.2,0.7v4.5
			H470.9z M480.8,278.1c-0.9,0-1.6-0.3-2.1-0.9s-0.8-1.5-0.8-2.6c0-0.7,0.1-1.3,0.3-1.8c0.2-0.5,0.5-0.9,0.9-1.2
			c0.4-0.3,0.9-0.4,1.5-0.4c0.3,0,0.6,0,0.9,0.1c0.3,0.1,0.5,0.2,0.7,0.3c0.2,0.1,0.3,0.3,0.4,0.4c0.1,0.1,0.2,0.3,0.3,0.4v-4h1.2
			v9.7h-0.9l-0.1-1.4c0,0.1-0.1,0.3-0.2,0.5c-0.1,0.2-0.2,0.3-0.4,0.5c-0.2,0.2-0.4,0.3-0.7,0.4
			C481.5,278.1,481.2,278.1,480.8,278.1z M481,277.2c0.7,0,1.2-0.2,1.5-0.6c0.3-0.4,0.4-1.1,0.4-2c0-0.5-0.1-1-0.2-1.3
			c-0.1-0.4-0.3-0.6-0.6-0.8c-0.3-0.2-0.6-0.3-1.1-0.3c-0.6,0-1,0.2-1.4,0.6c-0.3,0.4-0.5,1-0.5,1.9c0,0.8,0.2,1.5,0.5,2
			C479.9,277,480.4,277.2,481,277.2z M366,298.1v-8.8h1.2l0,1.2c0.1-0.1,0.2-0.3,0.3-0.4c0.1-0.2,0.3-0.3,0.5-0.4
			c0.2-0.1,0.4-0.2,0.6-0.3c0.2-0.1,0.5-0.1,0.8-0.1c0.5,0,1,0.1,1.4,0.4c0.4,0.2,0.7,0.6,1,1.1c0.2,0.5,0.3,1.1,0.3,1.9
			c0,0.8-0.1,1.4-0.3,2c-0.2,0.5-0.5,0.9-1,1.2c-0.4,0.3-0.9,0.4-1.5,0.4c-0.3,0-0.6,0-0.8-0.1c-0.2-0.1-0.4-0.2-0.6-0.3
			c-0.2-0.1-0.3-0.3-0.4-0.4c-0.1-0.2-0.2-0.3-0.3-0.4v3.3H366z M369.1,295.2c0.6,0,1-0.2,1.4-0.6c0.4-0.4,0.5-1.1,0.5-2
			c0-0.8-0.2-1.4-0.5-1.8c-0.3-0.5-0.8-0.7-1.4-0.7c-0.6,0-1.1,0.2-1.4,0.7c-0.3,0.5-0.5,1.1-0.5,1.8c0,0.5,0.1,0.9,0.2,1.3
			c0.1,0.4,0.4,0.7,0.6,0.9C368.4,295.1,368.7,295.2,369.1,295.2z M373.6,296v-6.7h1.1v1.3c0.1-0.3,0.3-0.6,0.5-0.8
			c0.2-0.2,0.4-0.4,0.7-0.5c0.3-0.1,0.5-0.2,0.8-0.2c0.1,0,0.2,0,0.3,0c0.1,0,0.2,0,0.2,0.1v1.2c-0.1,0-0.1-0.1-0.3-0.1
			c-0.1,0-0.2,0-0.3,0c-0.3,0-0.5,0-0.8,0.1c-0.2,0-0.4,0.1-0.6,0.3c-0.2,0.1-0.3,0.3-0.4,0.5c-0.1,0.2-0.1,0.4-0.1,0.7v4.2H373.6z
			 M381.1,296.1c-0.6,0-1.2-0.1-1.6-0.4c-0.5-0.3-0.8-0.7-1.1-1.2c-0.3-0.5-0.4-1.1-0.4-1.9c0-0.7,0.1-1.3,0.4-1.8
			c0.2-0.5,0.6-0.9,1-1.2c0.5-0.3,1-0.4,1.7-0.4c0.6,0,1.2,0.1,1.6,0.4c0.5,0.3,0.8,0.7,1.1,1.2c0.3,0.5,0.4,1.2,0.4,1.9
			c0,0.7-0.1,1.3-0.4,1.8c-0.2,0.5-0.6,0.9-1,1.2C382.3,296,381.8,296.1,381.1,296.1z M381.1,295.2c0.4,0,0.7-0.1,1-0.3
			c0.3-0.2,0.5-0.5,0.6-0.9c0.1-0.4,0.2-0.8,0.2-1.4c0-0.5-0.1-0.9-0.2-1.3c-0.1-0.4-0.3-0.7-0.6-0.9c-0.3-0.2-0.6-0.3-1.1-0.3
			c-0.4,0-0.8,0.1-1,0.3c-0.3,0.2-0.5,0.5-0.6,0.9c-0.1,0.4-0.2,0.8-0.2,1.4c0,0.5,0.1,0.9,0.2,1.3c0.1,0.4,0.3,0.7,0.6,0.9
			C380.3,295.1,380.7,295.2,381.1,295.2z M388.3,289.1c0.5,0,0.9,0.1,1.3,0.3c0.4,0.2,0.7,0.4,0.9,0.8c0.2,0.3,0.4,0.7,0.5,1.2h-1.1
			c0-0.2-0.1-0.4-0.3-0.6c-0.1-0.2-0.3-0.4-0.6-0.5c-0.2-0.1-0.5-0.2-0.8-0.2c-0.6,0-1,0.2-1.4,0.6c-0.4,0.4-0.5,1.1-0.5,1.9
			c0,0.8,0.2,1.4,0.5,1.9c0.3,0.5,0.8,0.7,1.5,0.7c0.3,0,0.6-0.1,0.8-0.2c0.2-0.1,0.4-0.3,0.6-0.5c0.1-0.2,0.2-0.4,0.3-0.6h1
			c-0.1,0.5-0.2,0.8-0.5,1.2c-0.2,0.3-0.6,0.6-0.9,0.8c-0.4,0.2-0.8,0.3-1.3,0.3c-0.6,0-1.1-0.1-1.6-0.4c-0.5-0.3-0.8-0.7-1.1-1.2
			c-0.3-0.5-0.4-1.1-0.4-1.9c0-0.7,0.1-1.3,0.4-1.8c0.2-0.5,0.6-0.9,1.1-1.2C387.1,289.3,387.6,289.1,388.3,289.1z M393.4,292.9
			c0,0.4,0.1,0.8,0.2,1.2c0.1,0.3,0.4,0.6,0.6,0.8c0.3,0.2,0.7,0.3,1.1,0.3c0.4,0,0.8-0.1,1.1-0.3c0.3-0.2,0.5-0.5,0.6-0.9h1.1
			c-0.1,0.5-0.3,0.8-0.5,1.2c-0.3,0.3-0.6,0.5-1,0.7c-0.4,0.2-0.8,0.2-1.2,0.2c-0.6,0-1.2-0.1-1.7-0.4c-0.5-0.3-0.9-0.7-1.1-1.2
			c-0.3-0.5-0.4-1.1-0.4-1.8c0-0.7,0.1-1.3,0.4-1.9c0.2-0.5,0.6-0.9,1.1-1.2c0.5-0.3,1-0.4,1.7-0.4c0.6,0,1.2,0.1,1.6,0.4
			c0.4,0.3,0.8,0.7,1,1.2c0.2,0.5,0.3,1.1,0.3,1.8v0.4H393.4z M393.4,292.1h3.7c0-0.4-0.1-0.7-0.2-1c-0.1-0.3-0.3-0.6-0.6-0.7
			c-0.3-0.2-0.6-0.3-1-0.3c-0.4,0-0.8,0.1-1,0.3c-0.3,0.2-0.5,0.5-0.6,0.8C393.5,291.5,393.4,291.8,393.4,292.1z M402.1,296.1
			c-0.5,0-0.9-0.1-1.3-0.2c-0.4-0.1-0.7-0.4-1-0.7c-0.3-0.3-0.4-0.7-0.5-1.2h1.1c0.1,0.3,0.2,0.5,0.3,0.7c0.2,0.2,0.4,0.3,0.6,0.4
			c0.2,0.1,0.5,0.1,0.8,0.1c0.5,0,0.8-0.1,1.1-0.3c0.3-0.2,0.4-0.4,0.4-0.8c0-0.2-0.1-0.4-0.2-0.6c-0.1-0.2-0.4-0.3-0.7-0.3
			l-1.4-0.3c-0.5-0.1-1-0.3-1.3-0.6c-0.3-0.3-0.5-0.7-0.5-1.2c0-0.4,0.1-0.7,0.3-1c0.2-0.3,0.5-0.5,0.9-0.7c0.4-0.2,0.9-0.3,1.4-0.3
			c0.7,0,1.3,0.2,1.8,0.5c0.5,0.3,0.7,0.8,0.7,1.4h-1.1c0-0.3-0.2-0.6-0.4-0.8c-0.2-0.2-0.6-0.3-1-0.3c-0.4,0-0.8,0.1-1,0.3
			c-0.3,0.2-0.4,0.4-0.4,0.8c0,0.2,0.1,0.4,0.3,0.6c0.2,0.1,0.5,0.2,0.8,0.3l1.3,0.3c0.3,0.1,0.6,0.2,0.8,0.3
			c0.2,0.1,0.4,0.3,0.5,0.4c0.1,0.2,0.2,0.3,0.3,0.5c0.1,0.2,0.1,0.3,0.1,0.5c0,0.4-0.1,0.8-0.3,1.1c-0.2,0.3-0.5,0.5-0.9,0.7
			C403.1,296,402.6,296.1,402.1,296.1z M408.5,296.1c-0.5,0-0.9-0.1-1.3-0.2c-0.4-0.1-0.7-0.4-1-0.7c-0.3-0.3-0.4-0.7-0.5-1.2h1.1
			c0.1,0.3,0.2,0.5,0.3,0.7c0.2,0.2,0.4,0.3,0.6,0.4c0.2,0.1,0.5,0.1,0.8,0.1c0.4,0,0.8-0.1,1.1-0.3c0.3-0.2,0.4-0.4,0.4-0.8
			c0-0.2-0.1-0.4-0.2-0.6c-0.1-0.2-0.4-0.3-0.7-0.3l-1.4-0.3c-0.5-0.1-1-0.3-1.3-0.6c-0.3-0.3-0.5-0.7-0.5-1.2c0-0.4,0.1-0.7,0.3-1
			c0.2-0.3,0.5-0.5,0.9-0.7c0.4-0.2,0.9-0.3,1.4-0.3c0.7,0,1.3,0.2,1.8,0.5c0.5,0.3,0.7,0.8,0.7,1.4h-1.1c0-0.3-0.2-0.6-0.4-0.8
			c-0.2-0.2-0.6-0.3-1-0.3c-0.4,0-0.8,0.1-1,0.3c-0.3,0.2-0.4,0.4-0.4,0.8c0,0.2,0.1,0.4,0.3,0.6c0.2,0.1,0.5,0.2,0.8,0.3l1.3,0.3
			c0.3,0.1,0.6,0.2,0.8,0.3c0.2,0.1,0.4,0.3,0.5,0.4c0.1,0.2,0.2,0.3,0.3,0.5c0.1,0.2,0.1,0.3,0.1,0.5c0,0.4-0.1,0.8-0.3,1.1
			c-0.2,0.3-0.5,0.5-0.9,0.7C409.5,296,409.1,296.1,408.5,296.1z M413.6,292.9c0,0.4,0.1,0.8,0.2,1.2c0.1,0.3,0.4,0.6,0.6,0.8
			c0.3,0.2,0.7,0.3,1.1,0.3c0.4,0,0.8-0.1,1.1-0.3c0.3-0.2,0.5-0.5,0.6-0.9h1.1c-0.1,0.5-0.3,0.8-0.5,1.2c-0.3,0.3-0.6,0.5-1,0.7
			c-0.4,0.2-0.8,0.2-1.2,0.2c-0.6,0-1.2-0.1-1.7-0.4c-0.5-0.3-0.8-0.7-1.1-1.2c-0.3-0.5-0.4-1.1-0.4-1.8c0-0.7,0.1-1.3,0.4-1.9
			c0.2-0.5,0.6-0.9,1.1-1.2c0.5-0.3,1-0.4,1.7-0.4c0.6,0,1.2,0.1,1.6,0.4c0.4,0.3,0.8,0.7,1,1.2c0.2,0.5,0.3,1.1,0.3,1.8v0.4H413.6z
			 M413.6,292.1h3.7c0-0.4-0.1-0.7-0.2-1c-0.1-0.3-0.3-0.6-0.6-0.7c-0.3-0.2-0.6-0.3-1-0.3c-0.4,0-0.8,0.1-1,0.3
			c-0.3,0.2-0.5,0.5-0.6,0.8C413.6,291.5,413.6,291.8,413.6,292.1z M422.4,296.1c-0.9,0-1.6-0.3-2.1-0.9c-0.5-0.6-0.8-1.5-0.8-2.6
			c0-0.7,0.1-1.3,0.3-1.8c0.2-0.5,0.5-0.9,0.9-1.2c0.4-0.3,0.9-0.4,1.5-0.4c0.3,0,0.6,0,0.9,0.1c0.3,0.1,0.5,0.2,0.6,0.3
			c0.2,0.1,0.3,0.3,0.4,0.4c0.1,0.1,0.2,0.3,0.3,0.4v-4h1.2v9.7h-0.9l-0.1-1.4c0,0.1-0.1,0.3-0.2,0.5c-0.1,0.2-0.2,0.3-0.4,0.5
			c-0.2,0.2-0.4,0.3-0.7,0.4C423.1,296.1,422.7,296.1,422.4,296.1z M422.6,295.2c0.7,0,1.2-0.2,1.5-0.6c0.3-0.4,0.4-1.1,0.4-2
			c0-0.5-0.1-1-0.2-1.3c-0.1-0.4-0.3-0.6-0.6-0.8c-0.3-0.2-0.6-0.3-1.1-0.3c-0.6,0-1,0.2-1.4,0.6c-0.3,0.4-0.5,1-0.5,1.9
			c0,0.8,0.2,1.5,0.5,2C421.5,295,422,295.2,422.6,295.2z M432.8,296.1c-0.5,0-0.9-0.1-1.3-0.2c-0.4-0.1-0.7-0.4-1-0.7
			c-0.3-0.3-0.4-0.7-0.5-1.2h1.1c0.1,0.3,0.2,0.5,0.3,0.7c0.2,0.2,0.4,0.3,0.6,0.4c0.2,0.1,0.5,0.1,0.8,0.1c0.4,0,0.8-0.1,1.1-0.3
			c0.3-0.2,0.4-0.4,0.4-0.8c0-0.2-0.1-0.4-0.2-0.6c-0.1-0.2-0.4-0.3-0.7-0.3l-1.4-0.3c-0.5-0.1-1-0.3-1.3-0.6
			c-0.3-0.3-0.5-0.7-0.5-1.2c0-0.4,0.1-0.7,0.3-1c0.2-0.3,0.5-0.5,0.9-0.7c0.4-0.2,0.9-0.3,1.4-0.3c0.7,0,1.3,0.2,1.8,0.5
			c0.5,0.3,0.7,0.8,0.7,1.4h-1.1c0-0.3-0.2-0.6-0.4-0.8c-0.2-0.2-0.6-0.3-1-0.3c-0.4,0-0.8,0.1-1,0.3c-0.3,0.2-0.4,0.4-0.4,0.8
			c0,0.2,0.1,0.4,0.3,0.6c0.2,0.1,0.5,0.2,0.8,0.3l1.3,0.3c0.3,0.1,0.6,0.2,0.8,0.3c0.2,0.1,0.4,0.3,0.5,0.4
			c0.1,0.2,0.2,0.3,0.3,0.5c0.1,0.2,0.1,0.3,0.1,0.5c0,0.4-0.1,0.8-0.3,1.1c-0.2,0.3-0.5,0.5-0.9,0.7
			C433.8,296,433.4,296.1,432.8,296.1z M439.5,296.1c-0.4,0-0.7-0.1-1-0.1c-0.3-0.1-0.6-0.2-0.8-0.4c-0.2-0.2-0.4-0.4-0.6-0.7
			c-0.1-0.3-0.2-0.6-0.2-1v-4.6h1.2v4.4c0,0.4,0.1,0.8,0.4,1.1c0.3,0.3,0.7,0.4,1.2,0.4c0.5,0,0.9-0.1,1.2-0.4
			c0.3-0.3,0.5-0.6,0.5-1.2v-4.4h1.2v6.7h-1l-0.1-1.3c-0.1,0.3-0.2,0.6-0.4,0.8c-0.2,0.2-0.4,0.4-0.7,0.5
			C440.1,296.1,439.8,296.1,439.5,296.1z M447,289.1c0.5,0,0.9,0.1,1.3,0.3c0.4,0.2,0.7,0.4,0.9,0.8c0.2,0.3,0.4,0.7,0.5,1.2h-1.1
			c0-0.2-0.1-0.4-0.3-0.6c-0.1-0.2-0.3-0.4-0.6-0.5s-0.5-0.2-0.8-0.2c-0.6,0-1,0.2-1.4,0.6c-0.4,0.4-0.5,1.1-0.5,1.9
			c0,0.8,0.2,1.4,0.5,1.9c0.3,0.5,0.8,0.7,1.5,0.7c0.3,0,0.6-0.1,0.8-0.2c0.2-0.1,0.4-0.3,0.6-0.5c0.1-0.2,0.2-0.4,0.3-0.6h1
			c-0.1,0.5-0.2,0.8-0.5,1.2c-0.2,0.3-0.6,0.6-0.9,0.8c-0.4,0.2-0.8,0.3-1.3,0.3c-0.6,0-1.1-0.1-1.6-0.4c-0.5-0.3-0.8-0.7-1.1-1.2
			c-0.3-0.5-0.4-1.1-0.4-1.9c0-0.7,0.1-1.3,0.4-1.8c0.2-0.5,0.6-0.9,1.1-1.2C445.8,289.3,446.4,289.1,447,289.1z M453.9,289.1
			c0.5,0,0.9,0.1,1.3,0.3c0.4,0.2,0.7,0.4,0.9,0.8c0.2,0.3,0.4,0.7,0.5,1.2h-1.1c0-0.2-0.1-0.4-0.3-0.6c-0.1-0.2-0.3-0.4-0.6-0.5
			c-0.2-0.1-0.5-0.2-0.8-0.2c-0.6,0-1,0.2-1.4,0.6c-0.4,0.4-0.5,1.1-0.5,1.9c0,0.8,0.2,1.4,0.5,1.9c0.3,0.5,0.8,0.7,1.5,0.7
			c0.3,0,0.6-0.1,0.8-0.2c0.2-0.1,0.4-0.3,0.6-0.5c0.1-0.2,0.2-0.4,0.3-0.6h1c-0.1,0.5-0.2,0.8-0.5,1.2c-0.2,0.3-0.6,0.6-0.9,0.8
			c-0.4,0.2-0.8,0.3-1.3,0.3c-0.6,0-1.1-0.1-1.6-0.4c-0.5-0.3-0.8-0.7-1.1-1.2c-0.3-0.5-0.4-1.1-0.4-1.9c0-0.7,0.1-1.3,0.4-1.8
			c0.2-0.5,0.6-0.9,1.1-1.2C452.7,289.3,453.3,289.1,453.9,289.1z M459,292.9c0,0.4,0.1,0.8,0.2,1.2c0.1,0.3,0.4,0.6,0.6,0.8
			c0.3,0.2,0.7,0.3,1.1,0.3c0.4,0,0.8-0.1,1.1-0.3c0.3-0.2,0.5-0.5,0.6-0.9h1.1c-0.1,0.5-0.3,0.8-0.5,1.2c-0.3,0.3-0.6,0.5-1,0.7
			c-0.4,0.2-0.8,0.2-1.2,0.2c-0.6,0-1.2-0.1-1.7-0.4c-0.5-0.3-0.9-0.7-1.1-1.2c-0.3-0.5-0.4-1.1-0.4-1.8c0-0.7,0.1-1.3,0.4-1.9
			c0.2-0.5,0.6-0.9,1.1-1.2c0.5-0.3,1-0.4,1.7-0.4c0.6,0,1.2,0.1,1.6,0.4c0.4,0.3,0.8,0.7,1,1.2c0.2,0.5,0.3,1.1,0.3,1.8v0.4H459z
			 M459,292.1h3.7c0-0.4-0.1-0.7-0.2-1c-0.1-0.3-0.3-0.6-0.6-0.7c-0.3-0.2-0.6-0.3-1-0.3c-0.4,0-0.8,0.1-1,0.3
			c-0.3,0.2-0.5,0.5-0.6,0.8C459.1,291.5,459,291.8,459,292.1z M467.7,296.1c-0.5,0-0.9-0.1-1.3-0.2c-0.4-0.1-0.7-0.4-1-0.7
			c-0.3-0.3-0.4-0.7-0.5-1.2h1.1c0.1,0.3,0.2,0.5,0.3,0.7c0.2,0.2,0.4,0.3,0.6,0.4c0.2,0.1,0.5,0.1,0.8,0.1c0.4,0,0.8-0.1,1.1-0.3
			c0.3-0.2,0.4-0.4,0.4-0.8c0-0.2-0.1-0.4-0.2-0.6c-0.1-0.2-0.4-0.3-0.7-0.3l-1.4-0.3c-0.5-0.1-1-0.3-1.3-0.6
			c-0.3-0.3-0.5-0.7-0.5-1.2c0-0.4,0.1-0.7,0.3-1c0.2-0.3,0.5-0.5,0.9-0.7c0.4-0.2,0.9-0.3,1.4-0.3c0.7,0,1.3,0.2,1.8,0.5
			c0.5,0.3,0.7,0.8,0.7,1.4h-1.1c0-0.3-0.2-0.6-0.4-0.8c-0.2-0.2-0.6-0.3-1-0.3c-0.4,0-0.8,0.1-1,0.3c-0.3,0.2-0.4,0.4-0.4,0.8
			c0,0.2,0.1,0.4,0.3,0.6c0.2,0.1,0.5,0.2,0.8,0.3l1.3,0.3c0.3,0.1,0.6,0.2,0.8,0.3c0.2,0.1,0.4,0.3,0.5,0.4
			c0.1,0.2,0.2,0.3,0.3,0.5c0.1,0.2,0.1,0.3,0.1,0.5c0,0.4-0.1,0.8-0.3,1.1c-0.2,0.3-0.5,0.5-0.9,0.7
			C468.7,296,468.3,296.1,467.7,296.1z M474.2,296.1c-0.5,0-0.9-0.1-1.3-0.2c-0.4-0.1-0.7-0.4-1-0.7c-0.3-0.3-0.4-0.7-0.5-1.2h1.1
			c0.1,0.3,0.2,0.5,0.3,0.7c0.2,0.2,0.4,0.3,0.6,0.4c0.2,0.1,0.5,0.1,0.8,0.1c0.5,0,0.8-0.1,1.1-0.3c0.3-0.2,0.4-0.4,0.4-0.8
			c0-0.2-0.1-0.4-0.2-0.6c-0.1-0.2-0.4-0.3-0.7-0.3l-1.4-0.3c-0.5-0.1-1-0.3-1.3-0.6c-0.3-0.3-0.5-0.7-0.5-1.2c0-0.4,0.1-0.7,0.3-1
			c0.2-0.3,0.5-0.5,0.9-0.7s0.9-0.3,1.4-0.3c0.7,0,1.3,0.2,1.8,0.5c0.5,0.3,0.7,0.8,0.7,1.4h-1.1c0-0.3-0.2-0.6-0.4-0.8
			c-0.2-0.2-0.6-0.3-1-0.3c-0.4,0-0.8,0.1-1,0.3c-0.3,0.2-0.4,0.4-0.4,0.8c0,0.2,0.1,0.4,0.3,0.6c0.2,0.1,0.5,0.2,0.8,0.3l1.3,0.3
			c0.3,0.1,0.6,0.2,0.8,0.3c0.2,0.1,0.4,0.3,0.5,0.4c0.1,0.2,0.2,0.3,0.3,0.5c0.1,0.2,0.1,0.3,0.1,0.5c0,0.4-0.1,0.8-0.3,1.1
			c-0.2,0.3-0.5,0.5-0.9,0.7C475.2,296,474.7,296.1,474.2,296.1z M482.1,289.3v0.9h-1.6v5.8h-1.2v-5.8h-1.4v-0.9h1.4v-1
			c0-0.5,0.1-0.9,0.4-1.2c0.3-0.3,0.7-0.4,1.2-0.4h1.3l0,0.9h-1c-0.3,0-0.5,0.1-0.6,0.2c-0.1,0.1-0.1,0.4-0.1,0.7v0.9H482.1z
			 M486,296.1c-0.4,0-0.7-0.1-1-0.1c-0.3-0.1-0.6-0.2-0.8-0.4c-0.2-0.2-0.4-0.4-0.6-0.7c-0.1-0.3-0.2-0.6-0.2-1v-4.6h1.2v4.4
			c0,0.4,0.1,0.8,0.4,1.1c0.3,0.3,0.7,0.4,1.2,0.4c0.5,0,0.9-0.1,1.2-0.4c0.3-0.3,0.5-0.6,0.5-1.2v-4.4h1.2v6.7h-1l-0.1-1.3
			c-0.1,0.3-0.2,0.6-0.4,0.8c-0.2,0.2-0.4,0.4-0.7,0.5C486.6,296.1,486.3,296.1,486,296.1z M492.6,296.1c-0.4,0-0.7,0-0.9-0.1
			c-0.2-0.1-0.4-0.2-0.5-0.4c-0.1-0.2-0.2-0.4-0.2-0.6c0-0.2-0.1-0.4-0.1-0.7v-7.9h1.2v7.8c0,0.3,0.1,0.6,0.2,0.8
			c0.1,0.2,0.3,0.3,0.6,0.3l0.4,0v0.8c-0.1,0-0.2,0.1-0.3,0.1C492.8,296.1,492.7,296.1,492.6,296.1z M496.2,296.1
			c-0.4,0-0.7,0-0.9-0.1c-0.2-0.1-0.4-0.2-0.5-0.4c-0.1-0.2-0.2-0.4-0.2-0.6c0-0.2-0.1-0.4-0.1-0.7v-7.9h1.2v7.8
			c0,0.3,0.1,0.6,0.2,0.8c0.1,0.2,0.3,0.3,0.6,0.3l0.4,0v0.8c-0.1,0-0.2,0.1-0.3,0.1C496.4,296.1,496.3,296.1,496.2,296.1z
			 M498.7,298.1c-0.4,0-0.7,0-0.8-0.1c-0.1-0.1-0.2-0.1-0.2-0.1v-0.8l0.7,0c0.3,0,0.5,0,0.6-0.1c0.2,0,0.3-0.1,0.4-0.2
			c0.1-0.1,0.2-0.2,0.2-0.2c0.1-0.1,0.1-0.2,0.1-0.3l0.2-0.6l-2.6-6.6h1.2l2,5.2l2-5.2h1.2l-2.8,7.2c-0.2,0.4-0.4,0.8-0.6,1
			c-0.2,0.2-0.5,0.4-0.7,0.5C499.3,298.1,499,298.1,498.7,298.1z"/>
		<circle class="st31" cx="433" cy="206" r="28"/>
		<path class="st32" d="M424,207.7l4.6,4.6l13.3-13.3"/>
	</g>
</g>
<g>
	<defs>
		<rect id="SVGID_00000121961829533817474700000013880753824426087610_" x="369" y="318" width="131" height="30"/>
	</defs>
	<clipPath id="SVGID_00000072239379265288823560000006460271800616467897_">
		<use xlink:href="#SVGID_00000121961829533817474700000013880753824426087610_"  style="overflow:visible;"/>
	</clipPath>
	<g style="clip-path:url(#SVGID_00000072239379265288823560000006460271800616467897_);">
		<path class="st19" d="M384,318h101c8.3,0,15,6.7,15,15l0,0c0,8.3-6.7,15-15,15H384c-8.3,0-15-6.7-15-15l0,0
			C369,324.7,375.7,318,384,318z"/>
		<path class="st8" d="M415.6,329c0,0,0.2,0,0.3,0c0.2,0,0.4,0,0.7,0c0.3,0,0.5,0,0.8,0c0.3,0,0.5,0,0.6,0c1,0,1.8,0.2,2.4,0.5
			c0.6,0.3,1.1,0.8,1.3,1.4c0.3,0.6,0.4,1.3,0.4,2.1c0,0.8-0.2,1.5-0.5,2.1c-0.3,0.6-0.8,1.1-1.4,1.4c-0.6,0.3-1.4,0.5-2.3,0.5h-2.3
			V329z M417.2,330.3v5.4h0.7c0.5,0,0.9-0.1,1.2-0.3c0.4-0.2,0.7-0.5,0.9-0.9c0.2-0.4,0.3-0.9,0.3-1.6c0-0.6-0.1-1.1-0.3-1.5
			c-0.2-0.4-0.5-0.7-0.8-0.9c-0.4-0.2-0.8-0.3-1.3-0.3H417.2z M424.8,331.3v5.7h-1.5v-5.7H424.8z M424.8,329.1v1.4h-1.6v-1.4H424.8z
			 M428.4,337.1c-0.4,0-0.8-0.1-1.1-0.2c-0.4-0.1-0.7-0.3-0.9-0.6c-0.3-0.3-0.4-0.6-0.5-1.1h1.4c0,0.2,0.1,0.4,0.3,0.5
			c0.1,0.1,0.3,0.2,0.4,0.3c0.2,0,0.3,0.1,0.5,0.1c0.3,0,0.6,0,0.7-0.1c0.2-0.1,0.3-0.2,0.3-0.5c0-0.2-0.1-0.3-0.2-0.4
			c-0.1-0.1-0.3-0.2-0.5-0.2l-1-0.2c-0.5-0.1-0.9-0.3-1.2-0.5c-0.3-0.3-0.5-0.6-0.5-1.1c0-0.3,0.1-0.6,0.3-0.9
			c0.2-0.3,0.5-0.5,0.8-0.6c0.4-0.2,0.8-0.2,1.3-0.2c0.7,0,1.3,0.2,1.7,0.5c0.4,0.3,0.6,0.7,0.6,1.3h-1.3c0-0.2-0.2-0.4-0.3-0.5
			c-0.2-0.1-0.4-0.2-0.7-0.2c-0.3,0-0.5,0-0.7,0.1c-0.2,0.1-0.3,0.3-0.3,0.5c0,0.2,0.1,0.3,0.2,0.4c0.1,0.1,0.4,0.2,0.7,0.2l0.9,0.2
			c0.3,0.1,0.6,0.2,0.8,0.3c0.2,0.1,0.4,0.3,0.5,0.4c0.1,0.2,0.2,0.3,0.2,0.5c0,0.2,0.1,0.3,0.1,0.4c0,0.4-0.1,0.7-0.3,1
			c-0.2,0.3-0.5,0.5-0.8,0.6C429.3,337,428.9,337.1,428.4,337.1z M431.9,337v-5.7h1.6v0.8c0.2-0.2,0.4-0.5,0.7-0.6
			c0.3-0.2,0.7-0.3,1.1-0.3c0.2,0,0.4,0,0.6,0.1c0.2,0.1,0.4,0.2,0.6,0.3c0.2,0.1,0.3,0.3,0.4,0.5c0.2-0.3,0.4-0.5,0.7-0.6
			c0.3-0.2,0.6-0.3,1-0.3c0.2,0,0.4,0,0.6,0.1c0.2,0.1,0.4,0.2,0.6,0.3c0.2,0.2,0.3,0.4,0.4,0.6c0.1,0.3,0.2,0.6,0.2,1v3.8h-1.6
			v-3.6c0-0.2,0-0.4-0.1-0.5c-0.1-0.1-0.2-0.2-0.3-0.3c-0.1-0.1-0.3-0.1-0.4-0.1c-0.1,0-0.3,0-0.4,0.1c-0.1,0.1-0.3,0.1-0.4,0.3
			c-0.1,0.1-0.2,0.3-0.2,0.5v3.6h-1.6v-3.7c0-0.2,0-0.3-0.1-0.4c-0.1-0.1-0.2-0.2-0.3-0.3c-0.1-0.1-0.3-0.1-0.4-0.1
			c-0.1,0-0.3,0-0.4,0.1c-0.1,0.1-0.3,0.2-0.4,0.3c-0.1,0.1-0.1,0.3-0.1,0.5v3.6H431.9z M443.3,331.3v5.7h-1.5v-5.7H443.3z
			 M443.3,329.1v1.4h-1.6v-1.4H443.3z M446.9,337.1c-0.4,0-0.8-0.1-1.1-0.2c-0.4-0.1-0.7-0.3-0.9-0.6c-0.3-0.3-0.4-0.6-0.5-1.1h1.4
			c0,0.2,0.1,0.4,0.3,0.5c0.1,0.1,0.3,0.2,0.4,0.3c0.2,0,0.3,0.1,0.5,0.1c0.3,0,0.6,0,0.7-0.1c0.2-0.1,0.3-0.2,0.3-0.5
			c0-0.2-0.1-0.3-0.2-0.4c-0.1-0.1-0.3-0.2-0.5-0.2l-1-0.2c-0.5-0.1-0.9-0.3-1.2-0.5c-0.3-0.3-0.5-0.6-0.5-1.1
			c0-0.3,0.1-0.6,0.3-0.9c0.2-0.3,0.5-0.5,0.8-0.6c0.4-0.2,0.8-0.2,1.3-0.2c0.7,0,1.3,0.2,1.7,0.5c0.4,0.3,0.6,0.7,0.6,1.3h-1.3
			c0-0.2-0.2-0.4-0.3-0.5c-0.2-0.1-0.4-0.2-0.7-0.2c-0.3,0-0.5,0-0.7,0.1c-0.2,0.1-0.3,0.3-0.3,0.5c0,0.2,0.1,0.3,0.2,0.4
			c0.1,0.1,0.4,0.2,0.7,0.2l0.9,0.2c0.3,0.1,0.6,0.2,0.8,0.3c0.2,0.1,0.4,0.3,0.5,0.4c0.1,0.2,0.2,0.3,0.2,0.5
			c0,0.2,0.1,0.3,0.1,0.4c0,0.4-0.1,0.7-0.3,1c-0.2,0.3-0.5,0.5-0.8,0.6C447.8,337,447.4,337.1,446.9,337.1z M452.5,337.1
			c-0.4,0-0.8-0.1-1.1-0.2c-0.4-0.1-0.7-0.3-0.9-0.6c-0.3-0.3-0.4-0.6-0.5-1.1h1.4c0,0.2,0.1,0.4,0.3,0.5c0.1,0.1,0.3,0.2,0.4,0.3
			c0.2,0,0.3,0.1,0.5,0.1c0.3,0,0.6,0,0.7-0.1c0.2-0.1,0.3-0.2,0.3-0.5c0-0.2-0.1-0.3-0.2-0.4c-0.1-0.1-0.3-0.2-0.6-0.2l-1-0.2
			c-0.5-0.1-0.9-0.3-1.2-0.5c-0.3-0.3-0.5-0.6-0.5-1.1c0-0.3,0.1-0.6,0.3-0.9c0.2-0.3,0.5-0.5,0.8-0.6c0.4-0.2,0.8-0.2,1.3-0.2
			c0.7,0,1.3,0.2,1.7,0.5c0.4,0.3,0.6,0.7,0.6,1.3h-1.3c0-0.2-0.1-0.4-0.3-0.5c-0.2-0.1-0.4-0.2-0.7-0.2c-0.3,0-0.5,0-0.7,0.1
			c-0.2,0.1-0.3,0.3-0.3,0.5c0,0.2,0.1,0.3,0.2,0.4c0.1,0.1,0.4,0.2,0.7,0.2l0.9,0.2c0.3,0.1,0.6,0.2,0.8,0.3
			c0.2,0.1,0.4,0.3,0.5,0.4c0.1,0.2,0.2,0.3,0.2,0.5c0,0.2,0.1,0.3,0.1,0.4c0,0.4-0.1,0.7-0.3,1c-0.2,0.3-0.5,0.5-0.8,0.6
			C453.4,337,453,337.1,452.5,337.1z"/>
	</g>
</g>
</svg>
